<svg xmlns="http://www.w3.org/2000/svg" xmlns:v="https://svgstorm.com"
viewBox = "0 0 1024 1024"
width="1024"
height="1024">
<g fill="None" fill-opacity="0.0" stroke="#000000" stroke-opacity="0.00" stroke-width="0.3"><path d="
M 0.00 1024.00 
L 1024.00 1024.00
L 1024.00 0.00
L 0.00 0.00
L 0.00 1024.00
M 323.00 104.00 
C 334.02 106.17 344.02 112.89 353.70 118.30 C 363.37 123.72 371.22 131.89 380.70 137.30 C 390.18 142.71 396.63 152.86 406.25 157.75 C 415.86 162.64 420.65 176.74 432.07 177.93 C 443.50 179.11 460.67 175.67 474.00 176.00 C 487.33 176.33 505.08 174.37 519.00 175.00 C 532.92 175.63 550.78 175.34 564.00 176.00 C 577.22 176.66 590.29 179.82 599.70 171.70 C 609.10 163.57 615.65 158.06 624.75 150.75 C 633.84 143.44 641.61 137.51 651.00 131.00
C 666.43 120.31 675.85 112.69 694.08 105.08 C 712.30 97.46 728.74 113.26 731.93 132.07 C 735.11 150.89 740.96 170.64 742.33 190.67 C 743.70 210.70 747.64 233.40 748.00 254.00
C 741.22 250.61 734.27 246.13 728.00 242.00
C 687.53 221.99 647.85 212.80 602.00 208.00 C 556.14 203.21 501.35 200.65 455.00 205.00
C 425.03 207.81 394.94 211.05 366.00 218.00
C 360.35 219.36 354.79 221.06 349.00 222.00
C 353.94 224.20 342.53 223.69 337.78 225.78 C 333.03 227.87 325.89 229.64 320.78 231.78 C 315.67 233.91 309.87 236.30 304.77 238.77 C 299.68 241.24 294.25 243.47 289.31 246.31 C 284.36 249.14 280.32 253.16 275.00 255.00
C 277.71 222.69 280.24 188.35 286.00 156.00
C 289.63 136.12 294.29 98.36 323.00 104.00
M 328.00 231.00 
C 326.09 233.49 324.02 230.19 328.00 231.00
M 538.00 233.00 
C 556.39 234.62 574.92 233.76 593.07 235.93 C 611.23 238.09 628.75 239.98 645.00 243.00
C 665.63 246.84 683.51 252.58 702.69 259.31 C 721.87 266.03 737.27 286.56 717.77 299.77 C 698.27 312.98 684.81 316.25 663.00 321.00
C 630.96 327.98 599.38 331.35 566.00 334.00
C 539.45 336.11 512.54 335.00 486.00 335.00
C 464.27 335.00 440.96 333.47 420.00 331.00 C 399.03 328.54 379.01 326.19 358.99 321.01 C 338.97 315.82 326.21 312.27 307.92 301.08 C 289.63 289.89 297.90 269.55 316.23 262.23 C 334.56 254.91 350.24 248.93 370.02 245.02 C 389.81 241.12 411.49 238.29 432.00 236.00
C 466.24 232.17 502.78 229.90 538.00 233.00
M 387.00 240.00 
C 387.61 240.61 385.34 238.34 387.00 240.00
M 333.00 253.00 
C 333.74 253.74 332.18 252.18 333.00 253.00
M 841.00 441.00 
C 822.58 485.71 771.63 510.82 724.00 503.00
C 721.41 504.54 720.76 508.47 718.00 510.00
C 706.76 529.33 691.05 538.08 671.77 549.77 C 652.49 561.47 627.63 566.52 603.00 568.00 C 578.37 569.48 544.43 569.17 518.00 569.00 C 491.57 568.83 457.31 569.48 431.00 569.00 C 404.69 568.52 382.47 564.11 360.00 553.00
C 335.66 540.96 316.65 528.33 301.08 503.92 C 285.51 479.51 273.92 453.68 274.00 422.00 C 274.08 390.31 273.10 346.30 275.00 314.00
C 283.71 321.17 292.24 329.04 303.00 332.00
C 304.32 368.57 299.24 417.60 307.78 451.22 C 316.32 484.84 334.43 503.57 360.00 524.00
C 406.57 554.04 471.66 540.41 526.00 543.00 C 580.34 545.59 636.59 547.84 679.00 513.00
C 681.37 511.05 685.26 507.99 687.00 506.00
C 689.64 502.23 692.64 498.32 696.00 495.00
C 696.58 494.16 697.35 492.86 698.00 492.00
C 698.83 490.36 700.18 489.30 701.00 488.00
C 713.52 468.27 720.40 445.51 722.00 422.00
C 723.03 406.89 721.95 387.26 722.00 373.00 C 722.05 358.74 721.83 344.91 720.00 333.00
C 721.25 332.70 721.71 331.17 723.00 331.00
C 730.94 323.48 741.62 317.75 750.75 310.75 C 759.87 303.74 778.36 311.75 788.69 315.31 C 799.03 318.86 809.86 326.43 818.70 334.30 C 827.54 342.18 832.99 350.85 839.30 361.70 C 845.61 372.54 847.78 386.34 849.00 400.00 C 850.22 413.66 845.95 428.99 841.00 441.00
M 458.00 379.00 
C 461.26 392.81 457.87 413.16 459.00 427.00 C 460.13 440.84 453.88 453.11 442.30 459.30 C 430.73 465.49 414.94 459.13 409.00 448.00
C 401.12 433.23 406.92 412.10 405.00 396.00 C 403.08 379.90 408.67 364.25 424.02 359.02 C 439.38 353.80 454.54 364.37 458.00 379.00
M 603.00 361.00 
C 628.09 373.68 616.37 410.64 617.07 435.07 C 617.77 459.51 580.77 472.26 568.00 447.00
C 558.98 429.15 565.65 402.94 564.33 383.33 C 563.01 363.72 586.66 352.74 603.00 361.00
M 220.00 420.00 
C 212.01 420.00 203.99 420.16 196.00 420.00
C 188.38 419.85 179.30 420.24 176.08 411.92 C 172.85 403.61 178.38 396.47 187.00 396.00
C 203.14 395.12 221.97 394.01 238.00 396.00
C 246.51 397.06 251.70 407.83 245.74 414.74 C 239.79 421.65 228.47 420.00 220.00 420.00
M 251.00 465.00 
C 258.31 466.41 261.89 472.96 260.00 480.00
C 257.47 489.44 243.99 492.42 235.77 496.77 C 227.55 501.12 215.80 506.11 207.00 510.00
C 200.42 512.91 191.65 513.40 187.70 505.30 C 183.75 497.21 190.68 490.60 197.00 487.00
C 205.18 482.34 214.46 477.86 223.23 474.23 C 232.00 470.60 241.38 463.15 251.00 465.00
M 401.00 617.00 
C 382.00 617.00 363.00 617.00 344.00 617.00
C 335.38 617.00 324.89 618.18 320.08 609.92 C 315.28 601.66 319.94 593.45 328.00 591.00
C 341.04 587.04 356.76 590.90 371.00 590.00 C 385.24 589.10 401.57 590.00 416.00 590.00
C 433.04 590.00 449.94 590.10 467.00 590.00 C 484.06 589.90 502.00 590.25 519.00 590.00 C 536.00 589.75 554.28 590.57 571.00 590.00 C 587.72 589.43 605.90 591.31 622.00 590.00 C 638.10 588.69 659.17 592.86 674.00 590.00 C 688.83 587.14 711.96 593.28 703.69 609.69 C 695.43 626.10 675.10 614.30 660.00 617.00 C 644.90 619.70 624.29 615.78 608.00 617.00 C 591.71 618.22 572.78 616.44 556.00 617.00 C 539.22 617.56 522.03 616.76 505.00 617.00 C 487.97 617.24 470.17 616.91 453.00 617.00 C 435.83 617.09 418.21 617.00 401.00 617.00
M 598.00 720.00 
C 598.28 725.03 601.43 736.35 598.00 741.00
C 598.00 741.50 598.00 742.00 598.00 742.00
C 600.22 745.01 599.30 752.94 598.00 756.00
C 598.00 756.50 598.00 757.50 598.00 758.00
C 599.91 762.50 598.04 767.79 598.00 772.00
C 598.89 782.15 599.01 791.99 599.00 803.00
C 590.49 804.98 575.39 800.92 565.00 804.00
C 562.67 773.17 564.66 741.25 564.00 710.00
C 560.00 710.00 556.00 710.00 552.00 710.00
C 553.36 709.69 551.97 713.98 550.00 712.00
C 551.83 710.27 544.30 706.00 550.00 705.00
C 549.80 698.34 550.15 691.66 550.00 685.00
C 554.67 685.00 559.33 685.00 564.00 685.00
C 563.51 669.26 563.90 653.77 576.25 643.25 C 588.59 632.73 606.09 634.87 622.00 635.00
C 622.00 643.33 622.00 651.67 622.00 660.00
C 609.25 660.78 601.61 658.71 598.67 673.67 C 595.73 688.63 611.23 684.39 623.00 686.00
C 619.76 694.94 624.19 705.73 622.00 712.00
C 617.74 708.01 606.41 710.85 599.00 710.00
C 603.74 711.83 602.16 711.42 598.00 713.00
C 599.21 715.31 598.44 717.69 598.00 720.00
M 301.00 726.00 
C 287.53 753.25 311.78 796.73 345.00 777.00
C 351.56 773.11 352.88 764.60 362.00 766.00 C 371.12 767.40 380.83 764.95 390.00 766.00
C 384.55 783.71 369.56 798.92 352.00 805.00
C 325.14 814.43 297.76 808.24 278.08 787.92 C 258.41 767.59 257.54 736.64 271.00 713.00
C 296.79 667.69 371.61 673.68 390.00 723.00
C 378.95 724.12 366.15 722.04 355.00 724.00
C 343.49 703.16 311.37 705.34 301.00 726.00
M 499.00 698.00 
C 498.55 693.70 500.04 688.88 498.00 685.00
C 508.57 683.89 523.66 687.37 531.00 683.00
C 532.66 723.09 532.66 764.92 531.00 805.00
C 524.24 801.19 511.54 802.95 503.00 804.00
C 502.13 799.32 500.41 796.25 501.00 792.00
C 478.51 816.81 435.65 810.76 415.25 787.75 C 394.85 764.75 394.10 726.71 415.75 701.75 C 437.41 676.79 477.90 676.67 499.00 698.00
M 763.00 756.00 
C 731.00 756.00 699.00 756.00 667.00 756.00
C 668.82 768.69 679.27 779.13 691.67 781.33 C 704.07 783.52 722.61 780.46 726.00 768.00
C 736.86 765.80 748.73 767.57 760.00 767.00
C 750.73 800.81 711.95 815.16 679.33 806.67 C 646.70 798.18 626.50 763.07 634.98 729.98 C 643.45 696.88 677.40 676.57 711.00 683.00 C 744.60 689.43 766.55 722.00 763.00 756.00 Z"/>
</g>
<g fill="None" fill-opacity="0.0" stroke="#FEC1D3" stroke-opacity="0.98" stroke-width="0.3"><path d="
M 286.00 156.00 
C 286.36 155.21 290.22 152.94 290.00 151.00
C 290.41 154.18 288.31 156.72 289.00 160.00
C 293.15 155.13 294.40 166.51 288.00 165.00
C 290.92 165.63 294.22 165.78 292.00 170.00
C 295.38 165.78 300.26 163.94 306.00 162.00
C 304.82 164.59 306.47 167.00 306.00 170.00
C 300.21 170.08 306.97 171.58 309.00 172.00
C 310.87 169.03 305.56 167.78 308.00 166.00
C 310.10 167.37 312.83 169.01 310.00 171.00
C 314.37 169.41 319.07 171.92 317.00 178.00
C 319.23 181.17 318.37 174.28 321.00 177.00
C 320.19 178.96 318.73 181.08 320.00 183.00
C 323.96 181.89 326.89 184.28 323.00 180.00
C 325.30 180.40 328.37 180.46 330.00 182.00
C 328.34 183.38 327.14 188.60 331.00 190.00
C 332.63 187.97 331.18 184.01 335.00 183.00
C 337.53 186.88 339.20 200.00 344.00 192.00
C 343.83 194.72 344.61 197.67 343.00 200.00
C 346.39 198.69 348.27 201.66 351.00 199.00
C 348.14 202.53 354.10 203.65 352.00 207.00
C 354.88 207.94 356.91 207.42 360.00 208.00
C 354.17 209.21 358.31 210.68 362.00 212.00
C 358.39 216.46 366.28 214.77 366.00 218.00
C 394.94 211.05 425.03 207.81 455.00 205.00
C 453.14 204.73 450.32 203.09 448.00 203.00
C 451.03 201.88 448.13 199.35 446.00 199.00
C 446.90 195.86 447.79 196.02 446.00 193.00
C 441.68 194.76 445.08 195.91 445.00 199.00
C 440.93 196.58 437.00 190.47 432.00 195.00
C 433.70 188.55 428.02 188.75 431.00 184.00
C 426.98 184.21 428.24 183.60 425.00 186.00
C 423.29 183.97 424.69 181.04 423.00 179.00
C 422.62 184.66 420.35 180.29 417.00 181.00
C 416.49 177.72 416.12 176.29 412.00 176.00
C 416.95 171.22 411.13 172.30 407.00 172.00
C 408.66 169.82 405.11 168.55 407.00 166.00
C 404.62 169.33 403.05 165.47 400.00 166.00
C 402.77 163.41 397.28 162.69 400.00 160.00
C 396.16 159.52 398.59 163.56 395.00 163.00
C 391.45 160.78 390.78 156.74 393.00 153.00
C 390.47 153.29 388.97 154.05 387.00 152.00
C 391.47 158.78 374.52 153.51 380.00 150.00
C 375.37 150.01 373.68 147.91 376.00 144.00
C 371.86 144.41 369.51 140.66 367.00 145.00
C 368.47 140.21 363.15 134.31 359.00 136.00
C 359.48 132.31 361.53 131.51 358.00 129.00
C 354.89 132.54 347.30 127.52 349.00 123.00
C 344.50 124.86 344.92 120.19 344.00 115.00
C 340.66 112.81 335.39 111.86 332.26 109.74 C 329.13 107.63 322.39 107.36 323.00 104.00
C 294.29 98.36 289.63 136.12 286.00 156.00 Z"/>
</g>
<g fill="None" fill-opacity="0.0" stroke="#FEDAC6" stroke-opacity="0.98" stroke-width="0.3"><path d="
M 651.00 131.00 
C 655.09 129.53 663.42 124.58 667.00 131.00
C 664.11 129.18 664.12 132.58 661.00 132.00
C 664.73 133.73 660.44 134.71 662.00 137.00
C 664.17 135.47 665.92 139.52 669.00 139.00
C 668.97 144.34 670.36 147.93 672.00 153.00
C 675.66 149.18 682.43 155.67 687.00 151.00
C 684.17 153.96 681.33 156.26 680.00 160.00
C 685.12 161.40 687.92 168.67 694.00 169.00
C 687.10 171.02 699.18 180.35 697.00 173.00
C 698.96 175.40 702.05 180.98 699.00 183.00
C 704.75 182.45 701.00 184.36 700.00 187.00
C 704.58 182.67 710.01 187.61 707.00 193.00
C 710.14 187.16 711.64 192.13 710.00 197.00
C 714.54 194.35 714.61 199.16 718.00 199.00
C 715.39 200.05 717.63 202.00 716.00 204.00
C 720.68 202.35 721.06 208.22 719.00 212.00
C 722.48 213.67 727.34 214.15 724.00 218.00
C 731.47 219.19 726.58 225.07 727.00 231.00
C 731.61 233.04 733.68 232.28 736.00 236.00
C 735.21 238.30 727.24 238.98 728.00 242.00
C 734.27 246.13 741.22 250.61 748.00 254.00
C 747.64 233.40 743.70 210.70 742.33 190.67 C 740.96 170.64 735.11 150.89 731.93 132.07 C 728.74 113.26 712.30 97.46 694.08 105.08 C 675.85 112.69 666.43 120.31 651.00 131.00 Z"/>
</g>
<g fill="None" fill-opacity="0.0" stroke="#FECFC9" stroke-opacity="0.97" stroke-width="0.3"><path d="
M 455.00 205.00 
C 501.35 200.65 556.14 203.21 602.00 208.00 C 647.85 212.80 687.53 221.99 728.00 242.00
C 727.24 238.98 735.21 238.30 736.00 236.00
C 733.68 232.28 731.61 233.04 727.00 231.00
C 726.58 225.07 731.47 219.19 724.00 218.00
C 727.34 214.15 722.48 213.67 719.00 212.00
C 721.06 208.22 720.68 202.35 716.00 204.00
C 717.63 202.00 715.39 200.05 718.00 199.00
C 714.61 199.16 714.54 194.35 710.00 197.00
C 711.64 192.13 710.14 187.16 707.00 193.00
C 710.01 187.61 704.58 182.67 700.00 187.00
C 701.00 184.36 704.75 182.45 699.00 183.00
C 702.05 180.98 698.96 175.40 697.00 173.00
C 699.18 180.35 687.10 171.02 694.00 169.00
C 687.92 168.67 685.12 161.40 680.00 160.00
C 681.33 156.26 684.17 153.96 687.00 151.00
C 682.43 155.67 675.66 149.18 672.00 153.00
C 670.36 147.93 668.97 144.34 669.00 139.00
C 665.92 139.52 664.17 135.47 662.00 137.00
C 660.44 134.71 664.73 133.73 661.00 132.00
C 664.12 132.58 664.11 129.18 667.00 131.00
C 663.42 124.58 655.09 129.53 651.00 131.00
C 641.61 137.51 633.84 143.44 624.75 150.75 C 615.65 158.06 609.10 163.57 599.70 171.70 C 590.29 179.82 577.22 176.66 564.00 176.00 C 550.78 175.34 532.92 175.63 519.00 175.00 C 505.08 174.37 487.33 176.33 474.00 176.00 C 460.67 175.67 443.50 179.11 432.07 177.93 C 420.65 176.74 415.86 162.64 406.25 157.75 C 396.63 152.86 390.18 142.71 380.70 137.30 C 371.22 131.89 363.37 123.72 353.70 118.30 C 344.02 112.89 334.02 106.17 323.00 104.00
C 322.39 107.36 329.13 107.63 332.26 109.74 C 335.39 111.86 340.66 112.81 344.00 115.00
C 344.92 120.19 344.50 124.86 349.00 123.00
C 347.30 127.52 354.89 132.54 358.00 129.00
C 361.53 131.51 359.48 132.31 359.00 136.00
C 363.15 134.31 368.47 140.21 367.00 145.00
C 369.51 140.66 371.86 144.41 376.00 144.00
C 373.68 147.91 375.37 150.01 380.00 150.00
C 374.52 153.51 391.47 158.78 387.00 152.00
C 388.97 154.05 390.47 153.29 393.00 153.00
C 390.78 156.74 391.45 160.78 395.00 163.00
C 398.59 163.56 396.16 159.52 400.00 160.00
C 397.28 162.69 402.77 163.41 400.00 166.00
C 403.05 165.47 404.62 169.33 407.00 166.00
C 405.11 168.55 408.66 169.82 407.00 172.00
C 411.13 172.30 416.95 171.22 412.00 176.00
C 416.12 176.29 416.49 177.72 417.00 181.00
C 420.35 180.29 422.62 184.66 423.00 179.00
C 424.69 181.04 423.29 183.97 425.00 186.00
C 428.24 183.60 426.98 184.21 431.00 184.00
C 428.02 188.75 433.70 188.55 432.00 195.00
C 437.00 190.47 440.93 196.58 445.00 199.00
C 445.08 195.91 441.68 194.76 446.00 193.00
C 447.79 196.02 446.90 195.86 446.00 199.00
C 448.13 199.35 451.03 201.88 448.00 203.00
C 450.32 203.09 453.14 204.73 455.00 205.00 Z"/>
</g>
<g fill="None" fill-opacity="0.0" stroke="#FEB7E2" stroke-opacity="0.97" stroke-width="0.3"><path d="
M 286.00 156.00 
C 280.24 188.35 277.71 222.69 275.00 255.00
C 280.32 253.16 284.36 249.14 289.31 246.31 C 294.25 243.47 299.68 241.24 304.77 238.77 C 309.87 236.30 315.67 233.91 320.78 231.78 C 325.89 229.64 333.03 227.87 337.78 225.78 C 342.53 223.69 353.94 224.20 349.00 222.00
C 354.79 221.06 360.35 219.36 366.00 218.00
C 366.28 214.77 358.39 216.46 362.00 212.00
C 358.31 210.68 354.17 209.21 360.00 208.00
C 356.91 207.42 354.88 207.94 352.00 207.00
C 354.10 203.65 348.14 202.53 351.00 199.00
C 348.27 201.66 346.39 198.69 343.00 200.00
C 344.61 197.67 343.83 194.72 344.00 192.00
C 339.20 200.00 337.53 186.88 335.00 183.00
C 331.18 184.01 332.63 187.97 331.00 190.00
C 327.14 188.60 328.34 183.38 330.00 182.00
C 328.37 180.46 325.30 180.40 323.00 180.00
C 326.89 184.28 323.96 181.89 320.00 183.00
C 318.73 181.08 320.19 178.96 321.00 177.00
C 318.37 174.28 319.23 181.17 317.00 178.00
C 319.07 171.92 314.37 169.41 310.00 171.00
C 312.83 169.01 310.10 167.37 308.00 166.00
C 305.56 167.78 310.87 169.03 309.00 172.00
C 306.97 171.58 300.21 170.08 306.00 170.00
C 306.47 167.00 304.82 164.59 306.00 162.00
C 300.26 163.94 295.38 165.78 292.00 170.00
C 294.22 165.78 290.92 165.63 288.00 165.00
C 294.40 166.51 293.15 155.13 289.00 160.00
C 288.31 156.72 290.41 154.18 290.00 151.00
C 290.22 152.94 286.36 155.21 286.00 156.00 Z"/>
</g>
<g fill="None" fill-opacity="0.0" stroke="#FFE9E9" stroke-opacity="0.01" stroke-width="0.3"><path d="
M 328.00 231.00 
C 324.02 230.19 326.09 233.49 328.00 231.00 Z"/>
</g>
<g fill="None" fill-opacity="0.0" stroke="#FEC3D0" stroke-opacity="0.97" stroke-width="0.3"><path d="
M 432.00 236.00 
C 431.11 236.28 425.56 238.53 425.00 240.00
C 429.02 239.85 439.85 235.16 439.00 243.00
C 440.96 241.03 442.82 240.49 446.00 239.00
C 447.48 242.95 452.30 241.14 452.00 237.00
C 454.09 239.18 454.45 240.89 457.00 239.00
C 456.29 241.62 456.87 245.64 454.00 247.00
C 457.49 248.23 457.92 249.83 456.00 252.00
C 460.26 255.03 460.26 253.45 464.00 258.00
C 466.50 258.08 466.05 254.66 466.00 252.00
C 467.43 254.26 468.31 257.86 466.00 260.00
C 470.31 260.15 472.01 259.38 469.00 263.00
C 475.41 263.62 477.92 269.45 475.00 275.00
C 478.90 274.40 482.35 277.45 479.00 280.00
C 482.30 282.00 481.23 274.21 486.00 276.00
C 489.70 281.79 481.55 279.15 481.00 285.00
C 484.03 285.60 484.35 288.00 488.00 288.00
C 485.51 290.47 489.35 291.72 491.00 293.00
C 493.23 290.89 492.57 286.32 490.00 290.00
C 485.55 284.42 492.04 284.19 494.00 283.00
C 494.02 285.69 491.75 288.77 496.00 287.00
C 493.98 288.92 494.17 290.85 497.00 289.00
C 497.27 291.75 493.71 292.68 493.00 295.00
C 498.70 295.30 497.10 295.97 495.00 298.00
C 497.12 299.76 498.82 301.41 500.00 304.00
C 504.58 300.57 504.08 303.57 508.00 300.00
C 508.01 302.38 506.17 306.85 511.00 303.00
C 510.83 306.41 505.47 308.51 512.00 307.00
C 509.86 311.20 515.86 311.90 512.00 316.00
C 517.56 313.95 516.98 319.17 518.80 322.25 C 520.63 325.32 526.52 327.24 526.00 332.00
C 513.21 334.54 497.53 330.44 486.00 335.00
C 512.54 335.00 539.45 336.11 566.00 334.00
C 566.99 333.50 569.13 330.58 570.00 329.00
C 567.84 328.49 563.46 328.07 566.00 325.00
C 563.50 322.97 561.35 323.93 558.00 323.00
C 561.45 317.76 544.01 310.61 553.00 308.00
C 550.37 307.85 550.92 303.43 547.00 305.00
C 551.88 300.96 545.81 296.85 541.00 298.00
C 538.16 292.10 545.41 288.90 546.00 284.00
C 541.46 289.05 539.89 282.56 535.00 281.00
C 536.65 278.34 541.60 278.71 540.00 274.00
C 537.12 278.25 536.26 272.54 540.00 272.00
C 537.53 272.00 535.27 269.41 533.00 271.00
C 532.01 267.10 531.86 264.91 534.00 263.00
C 532.83 260.06 527.42 261.19 530.00 257.00
C 526.55 255.79 525.56 254.15 525.00 258.00
C 524.35 253.86 521.92 253.46 520.00 257.00
C 518.89 253.44 520.79 251.01 523.00 248.00
C 518.95 246.86 516.12 243.41 514.00 240.00
C 511.85 241.42 511.26 241.72 508.00 243.00
C 507.66 240.10 507.59 238.29 504.00 240.00
C 504.65 236.37 507.26 236.13 512.00 236.00
C 508.63 232.31 517.97 234.66 522.00 234.00 C 526.03 233.34 534.51 235.32 538.00 233.00
C 502.78 229.90 466.24 232.17 432.00 236.00 Z"/>
</g>
<g fill="None" fill-opacity="0.0" stroke="#FECFC7" stroke-opacity="0.98" stroke-width="0.3"><path d="
M 538.00 233.00 
C 534.51 235.32 526.03 233.34 522.00 234.00 C 517.97 234.66 508.63 232.31 512.00 236.00
C 507.26 236.13 504.65 236.37 504.00 240.00
C 507.59 238.29 507.66 240.10 508.00 243.00
C 511.26 241.72 511.85 241.42 514.00 240.00
C 516.12 243.41 518.95 246.86 523.00 248.00
C 520.79 251.01 518.89 253.44 520.00 257.00
C 521.92 253.46 524.35 253.86 525.00 258.00
C 525.56 254.15 526.55 255.79 530.00 257.00
C 527.42 261.19 532.83 260.06 534.00 263.00
C 531.86 264.91 532.01 267.10 533.00 271.00
C 535.27 269.41 537.53 272.00 540.00 272.00
C 536.26 272.54 537.12 278.25 540.00 274.00
C 541.60 278.71 536.65 278.34 535.00 281.00
C 539.89 282.56 541.46 289.05 546.00 284.00
C 545.41 288.90 538.16 292.10 541.00 298.00
C 545.81 296.85 551.88 300.96 547.00 305.00
C 550.92 303.43 550.37 307.85 553.00 308.00
C 544.01 310.61 561.45 317.76 558.00 323.00
C 561.35 323.93 563.50 322.97 566.00 325.00
C 563.46 328.07 567.84 328.49 570.00 329.00
C 569.13 330.58 566.99 333.50 566.00 334.00
C 599.38 331.35 630.96 327.98 663.00 321.00
C 669.43 317.18 678.10 315.92 681.00 309.00
C 675.46 313.34 671.99 302.33 667.00 308.00
C 664.74 305.28 669.39 304.58 666.00 302.00
C 669.59 305.77 677.02 300.08 671.00 297.00
C 673.76 297.41 676.39 297.06 677.00 294.00
C 675.13 294.01 672.34 293.05 670.00 292.00
C 674.14 287.08 667.40 288.76 664.00 286.00
C 666.78 285.12 667.96 282.47 665.00 282.00
C 663.44 280.70 668.79 280.72 670.00 280.00
C 668.56 277.71 665.50 277.09 665.00 274.00
C 662.98 278.89 664.05 273.56 661.00 275.00
C 664.29 271.43 659.67 269.48 663.00 267.00
C 660.24 265.86 658.48 265.69 656.00 264.00
C 660.44 260.99 654.38 260.22 658.00 256.00
C 652.96 257.97 653.54 249.63 658.00 251.00
C 654.45 248.97 649.86 243.82 647.00 248.00
C 646.05 245.93 642.70 245.64 645.00 243.00
C 628.75 239.98 611.23 238.09 593.07 235.93 C 574.92 233.76 556.39 234.62 538.00 233.00 Z"/>
</g>
<g fill="None" fill-opacity="0.0" stroke="#FEB8DD" stroke-opacity="0.98" stroke-width="0.3"><path d="
M 486.00 335.00 
C 497.53 330.44 513.21 334.54 526.00 332.00
C 526.52 327.24 520.63 325.32 518.80 322.25 C 516.98 319.17 517.56 313.95 512.00 316.00
C 515.86 311.90 509.86 311.20 512.00 307.00
C 505.47 308.51 510.83 306.41 511.00 303.00
C 506.17 306.85 508.01 302.38 508.00 300.00
C 504.08 303.57 504.58 300.57 500.00 304.00
C 498.82 301.41 497.12 299.76 495.00 298.00
C 497.10 295.97 498.70 295.30 493.00 295.00
C 493.71 292.68 497.27 291.75 497.00 289.00
C 494.17 290.85 493.98 288.92 496.00 287.00
C 491.75 288.77 494.02 285.69 494.00 283.00
C 492.04 284.19 485.55 284.42 490.00 290.00
C 492.57 286.32 493.23 290.89 491.00 293.00
C 489.35 291.72 485.51 290.47 488.00 288.00
C 484.35 288.00 484.03 285.60 481.00 285.00
C 481.55 279.15 489.70 281.79 486.00 276.00
C 481.23 274.21 482.30 282.00 479.00 280.00
C 482.35 277.45 478.90 274.40 475.00 275.00
C 477.92 269.45 475.41 263.62 469.00 263.00
C 472.01 259.38 470.31 260.15 466.00 260.00
C 468.31 257.86 467.43 254.26 466.00 252.00
C 466.05 254.66 466.50 258.08 464.00 258.00
C 460.26 253.45 460.26 255.03 456.00 252.00
C 457.92 249.83 457.49 248.23 454.00 247.00
C 456.87 245.64 456.29 241.62 457.00 239.00
C 454.45 240.89 454.09 239.18 452.00 237.00
C 452.30 241.14 447.48 242.95 446.00 239.00
C 442.82 240.49 440.96 241.03 439.00 243.00
C 439.85 235.16 429.02 239.85 425.00 240.00
C 425.56 238.53 431.11 236.28 432.00 236.00
C 411.49 238.29 389.81 241.12 370.02 245.02 C 350.24 248.93 334.56 254.91 316.23 262.23 C 297.90 269.55 289.63 289.89 307.92 301.08 C 326.21 312.27 338.97 315.82 358.99 321.01 C 379.01 326.19 399.03 328.54 420.00 331.00 C 440.96 333.47 464.27 335.00 486.00 335.00 Z"/>
</g>
<g fill="None" fill-opacity="0.0" stroke="#FFD5FF" stroke-opacity="0.01" stroke-width="0.3"><path d="
M 387.00 240.00 
C 385.34 238.34 387.61 240.61 387.00 240.00 Z"/>
</g>
<g fill="None" fill-opacity="0.0" stroke="#FEDBC2" stroke-opacity="0.97" stroke-width="0.3"><path d="
M 663.00 321.00 
C 684.81 316.25 698.27 312.98 717.77 299.77 C 737.27 286.56 721.87 266.03 702.69 259.31 C 683.51 252.58 665.63 246.84 645.00 243.00
C 642.70 245.64 646.05 245.93 647.00 248.00
C 649.86 243.82 654.45 248.97 658.00 251.00
C 653.54 249.63 652.96 257.97 658.00 256.00
C 654.38 260.22 660.44 260.99 656.00 264.00
C 658.48 265.69 660.24 265.86 663.00 267.00
C 659.67 269.48 664.29 271.43 661.00 275.00
C 664.05 273.56 662.98 278.89 665.00 274.00
C 665.50 277.09 668.56 277.71 670.00 280.00
C 668.79 280.72 663.44 280.70 665.00 282.00
C 667.96 282.47 666.78 285.12 664.00 286.00
C 667.40 288.76 674.14 287.08 670.00 292.00
C 672.34 293.05 675.13 294.01 677.00 294.00
C 676.39 297.06 673.76 297.41 671.00 297.00
C 677.02 300.08 669.59 305.77 666.00 302.00
C 669.39 304.58 664.74 305.28 667.00 308.00
C 671.99 302.33 675.46 313.34 681.00 309.00
C 678.10 315.92 669.43 317.18 663.00 321.00 Z"/>
</g>
<g fill="None" fill-opacity="0.0" stroke="#FF80FF" stroke-opacity="0.01" stroke-width="0.3"><path d="
M 333.00 253.00 
C 332.18 252.18 333.74 253.74 333.00 253.00 Z"/>
</g>
<g fill="None" fill-opacity="0.0" stroke="#FED4D4" stroke-opacity="0.97" stroke-width="0.3"><path d="
M 723.00 331.00 
C 719.63 339.70 724.46 351.55 723.00 361.00 C 721.54 370.45 723.52 381.17 723.00 391.00 C 722.48 400.83 723.00 412.04 723.00 422.00
C 723.00 425.00 723.00 428.00 723.00 431.00
C 725.98 417.32 722.03 400.98 725.00 387.00
C 727.06 389.05 728.90 387.97 731.00 390.00
C 731.18 385.31 727.44 387.61 725.00 385.00
C 727.61 379.31 729.77 384.17 734.00 383.00
C 734.78 387.59 739.92 387.32 738.00 392.00
C 740.76 391.58 745.83 392.13 744.00 397.00
C 747.47 398.57 747.72 397.36 748.00 394.00
C 752.47 404.22 749.29 418.58 749.00 430.00
C 751.09 428.80 748.76 424.56 752.00 424.00
C 752.08 422.34 752.00 420.66 752.00 419.00
C 751.13 410.79 750.40 399.83 751.00 391.00 C 751.60 382.17 749.96 370.29 751.00 362.00 C 752.04 353.71 748.36 340.31 752.00 336.00
C 757.32 329.69 775.58 337.79 783.08 341.92 C 790.57 346.06 800.14 354.06 805.75 362.25 C 811.37 370.43 817.14 381.47 818.78 392.22 C 820.41 402.98 819.23 418.60 815.00 429.00
C 815.90 432.61 823.24 428.02 817.00 426.00
C 818.96 428.04 822.31 426.55 820.00 424.00
C 822.54 424.00 824.26 426.60 827.00 426.00
C 825.20 426.82 820.95 429.28 826.00 429.00
C 823.95 430.34 825.05 431.56 823.00 433.00
C 824.59 434.97 826.03 437.77 829.00 436.00
C 830.82 439.95 822.83 437.99 828.00 440.00
C 828.64 443.20 824.27 439.53 824.00 443.00
C 826.56 444.08 829.46 442.54 832.00 444.00
C 831.78 447.87 829.29 450.31 833.00 453.00
C 835.85 450.05 839.05 438.47 841.00 441.00
C 845.95 428.99 850.22 413.66 849.00 400.00 C 847.78 386.34 845.61 372.54 839.30 361.70 C 832.99 350.85 827.54 342.18 818.70 334.30 C 809.86 326.43 799.03 318.86 788.69 315.31 C 778.36 311.75 759.87 303.74 750.75 310.75 C 741.62 317.75 730.94 323.48 723.00 331.00 Z"/>
</g>
<g fill="None" fill-opacity="0.0" stroke="#FDD5EB" stroke-opacity="0.95" stroke-width="0.3"><path d="
M 360.00 553.00 
C 363.81 552.62 362.14 550.12 360.00 549.00
C 362.70 549.87 366.46 547.79 364.00 545.00
C 367.47 546.73 367.92 547.03 370.00 542.00
C 367.18 543.76 363.40 544.44 360.00 546.00
C 359.88 542.87 353.17 542.22 350.00 542.00
C 350.83 536.65 360.71 538.35 357.00 543.00
C 359.77 540.96 360.78 541.24 362.00 544.00
C 360.59 540.60 367.04 538.98 364.00 543.00
C 367.23 543.66 369.51 537.45 372.00 542.00
C 370.85 539.36 375.03 538.24 373.00 536.00
C 374.69 533.90 375.38 538.08 378.00 536.00
C 378.64 540.06 373.39 536.88 374.00 541.00
C 376.10 540.07 378.41 541.52 379.00 538.00
C 382.26 538.73 385.90 541.19 389.00 540.00
C 388.45 542.37 390.54 545.14 393.00 545.00
C 388.42 532.82 367.89 536.08 360.00 524.00
C 334.43 503.57 316.32 484.84 307.78 451.22 C 299.24 417.60 304.32 368.57 303.00 332.00
C 292.24 329.04 283.71 321.17 275.00 314.00
C 273.10 346.30 274.08 390.31 274.00 422.00 C 273.92 453.68 285.51 479.51 301.08 503.92 C 316.65 528.33 335.66 540.96 360.00 553.00 Z"/>
</g>
<g fill="None" fill-opacity="0.0" stroke="#FED0D3" stroke-opacity="0.64" stroke-width="0.3"><path d="
M 722.00 422.00 
C 722.01 421.94 723.00 422.00 723.00 422.00
C 723.00 412.04 722.48 400.83 723.00 391.00 C 723.52 381.17 721.54 370.45 723.00 361.00 C 724.46 351.55 719.63 339.70 723.00 331.00
C 721.71 331.17 721.25 332.70 720.00 333.00
C 721.83 344.91 722.05 358.74 722.00 373.00 C 721.95 387.26 723.03 406.89 722.00 422.00 Z"/>
</g>
<g fill="None" fill-opacity="0.0" stroke="#000000" stroke-opacity="0.00" stroke-width="0.3"><path d="
M 752.00 336.00 
C 749.07 344.05 753.22 354.29 752.00 363.00 C 750.78 371.71 752.45 381.99 752.00 391.00 C 751.55 400.01 751.99 409.91 752.00 419.00
C 752.00 420.66 752.08 422.34 752.00 424.00
C 751.08 442.01 745.44 459.48 739.00 476.00
C 771.21 478.44 803.34 458.71 815.00 429.00
C 819.23 418.60 820.41 402.98 818.78 392.22 C 817.14 381.47 811.37 370.43 805.75 362.25 C 800.14 354.06 790.57 346.06 783.08 341.92 C 775.58 337.79 757.32 329.69 752.00 336.00 Z"/>
</g>
<g fill="None" fill-opacity="0.0" stroke="#FEB9C1" stroke-opacity="0.90" stroke-width="0.3"><path d="
M 752.00 419.00 
C 751.99 409.91 751.55 400.01 752.00 391.00 C 752.45 381.99 750.78 371.71 752.00 363.00 C 753.22 354.29 749.07 344.05 752.00 336.00
C 748.36 340.31 752.04 353.71 751.00 362.00 C 749.96 370.29 751.60 382.17 751.00 391.00 C 750.40 399.83 751.13 410.79 752.00 419.00 Z"/>
</g>
<g fill="None" fill-opacity="0.0" stroke="#FECFCC" stroke-opacity="0.97" stroke-width="0.3"><path d="
M 409.00 448.00 
C 411.28 450.50 417.85 454.82 422.00 456.00
C 421.19 454.16 421.74 452.72 420.00 451.00
C 426.74 454.25 419.32 442.58 426.00 445.00
C 420.98 439.84 427.83 437.05 430.24 433.23 C 432.64 429.41 433.03 423.92 433.00 418.00
C 436.63 417.00 441.37 413.57 438.00 411.00
C 442.91 408.77 445.16 407.78 450.00 406.00
C 445.66 403.66 452.23 398.51 456.00 400.00
C 457.24 393.46 453.46 383.13 458.00 379.00
C 454.54 364.37 439.38 353.80 424.02 359.02 C 408.67 364.25 403.08 379.90 405.00 396.00 C 406.92 412.10 401.12 433.23 409.00 448.00 Z"/>
</g>
<g fill="None" fill-opacity="0.0" stroke="#FED3C8" stroke-opacity="0.97" stroke-width="0.3"><path d="
M 568.00 447.00 
C 569.24 448.39 572.62 447.49 573.00 451.00
C 582.22 450.85 580.74 439.87 587.00 438.00
C 585.86 434.92 586.96 433.33 589.00 431.00
C 579.32 427.06 595.95 420.29 589.00 414.00
C 592.32 414.65 591.63 409.33 595.00 410.00
C 591.96 406.85 594.67 406.78 597.00 409.00
C 597.03 404.70 601.59 399.70 599.00 397.00
C 604.71 393.45 611.16 387.76 607.00 383.00
C 609.65 380.71 613.41 379.13 615.00 383.00
C 614.42 379.55 614.57 372.81 610.00 373.00
C 613.09 369.13 601.81 365.73 603.00 361.00
C 586.66 352.74 563.01 363.72 564.33 383.33 C 565.65 402.94 558.98 429.15 568.00 447.00 Z"/>
</g>
<g fill="None" fill-opacity="0.0" stroke="#FEE0CB" stroke-opacity="0.95" stroke-width="0.3"><path d="
M 568.00 447.00 
C 580.77 472.26 617.77 459.51 617.07 435.07 C 616.37 410.64 628.09 373.68 603.00 361.00
C 601.81 365.73 613.09 369.13 610.00 373.00
C 614.57 372.81 614.42 379.55 615.00 383.00
C 613.41 379.13 609.65 380.71 607.00 383.00
C 611.16 387.76 604.71 393.45 599.00 397.00
C 601.59 399.70 597.03 404.70 597.00 409.00
C 594.67 406.78 591.96 406.85 595.00 410.00
C 591.63 409.33 592.32 414.65 589.00 414.00
C 595.95 420.29 579.32 427.06 589.00 431.00
C 586.96 433.33 585.86 434.92 587.00 438.00
C 580.74 439.87 582.22 450.85 573.00 451.00
C 572.62 447.49 569.24 448.39 568.00 447.00 Z"/>
</g>
<g fill="None" fill-opacity="0.0" stroke="#FEDDCF" stroke-opacity="0.95" stroke-width="0.3"><path d="
M 409.00 448.00 
C 414.94 459.13 430.73 465.49 442.30 459.30 C 453.88 453.11 460.13 440.84 459.00 427.00 C 457.87 413.16 461.26 392.81 458.00 379.00
C 453.46 383.13 457.24 393.46 456.00 400.00
C 452.23 398.51 445.66 403.66 450.00 406.00
C 445.16 407.78 442.91 408.77 438.00 411.00
C 441.37 413.57 436.63 417.00 433.00 418.00
C 433.03 423.92 432.64 429.41 430.24 433.23 C 427.83 437.05 420.98 439.84 426.00 445.00
C 419.32 442.58 426.74 454.25 420.00 451.00
C 421.74 452.72 421.19 454.16 422.00 456.00
C 417.85 454.82 411.28 450.50 409.00 448.00 Z"/>
</g>
<g fill="None" fill-opacity="0.0" stroke="#FDD3E5" stroke-opacity="0.97" stroke-width="0.3"><path d="
M 723.00 422.00 
C 723.00 422.00 722.01 421.94 722.00 422.00
C 720.40 445.51 713.52 468.27 701.00 488.00
C 701.92 487.19 702.29 485.66 704.00 486.00
C 698.02 496.98 688.87 505.98 681.00 515.00
C 684.43 515.82 686.73 519.91 687.00 515.00
C 688.06 519.21 694.13 513.90 693.00 519.00
C 695.43 516.20 697.60 515.89 701.00 515.00
C 702.64 517.11 700.40 518.68 703.00 520.00
C 705.49 516.82 704.96 518.95 706.00 521.00
C 711.29 515.49 715.32 508.89 721.00 504.00
C 721.48 506.66 717.47 507.32 718.00 510.00
C 720.76 508.47 721.41 504.54 724.00 503.00
C 771.63 510.82 822.58 485.71 841.00 441.00
C 839.05 438.47 835.85 450.05 833.00 453.00
C 829.29 450.31 831.78 447.87 832.00 444.00
C 829.46 442.54 826.56 444.08 824.00 443.00
C 824.27 439.53 828.64 443.20 828.00 440.00
C 822.83 437.99 830.82 439.95 829.00 436.00
C 826.03 437.77 824.59 434.97 823.00 433.00
C 825.05 431.56 823.95 430.34 826.00 429.00
C 820.95 429.28 825.20 426.82 827.00 426.00
C 824.26 426.60 822.54 424.00 820.00 424.00
C 822.31 426.55 818.96 428.04 817.00 426.00
C 823.24 428.02 815.90 432.61 815.00 429.00
C 803.34 458.71 771.21 478.44 739.00 476.00
C 745.44 459.48 751.08 442.01 752.00 424.00
C 748.76 424.56 751.09 428.80 749.00 430.00
C 749.29 418.58 752.47 404.22 748.00 394.00
C 747.72 397.36 747.47 398.57 744.00 397.00
C 745.83 392.13 740.76 391.58 738.00 392.00
C 739.92 387.32 734.78 387.59 734.00 383.00
C 729.77 384.17 727.61 379.31 725.00 385.00
C 727.44 387.61 731.18 385.31 731.00 390.00
C 728.90 387.97 727.06 389.05 725.00 387.00
C 722.03 400.98 725.98 417.32 723.00 431.00
C 723.00 428.00 723.00 425.00 723.00 422.00 Z"/>
</g>
<g fill="None" fill-opacity="0.0" stroke="#FEE4CA" stroke-opacity="0.96" stroke-width="0.3"><path d="
M 196.00 420.00 
C 199.35 419.74 203.96 419.00 208.00 419.00
C 212.27 418.59 218.46 417.99 223.00 417.00
C 212.70 415.80 220.55 405.19 220.00 400.00
C 222.39 400.38 227.81 399.11 224.00 397.00
C 211.74 397.00 198.47 396.49 187.00 396.00
C 178.38 396.47 172.85 403.61 176.08 411.92 C 179.30 420.24 188.38 419.85 196.00 420.00 Z"/>
</g>
<g fill="None" fill-opacity="0.0" stroke="#F9D6C4" stroke-opacity="0.79" stroke-width="0.3"><path d="
M 224.00 397.00 
C 228.41 397.00 234.45 395.90 238.00 396.00
C 221.97 394.01 203.14 395.12 187.00 396.00
C 198.47 396.49 211.74 397.00 224.00 397.00 Z"/>
</g>
<g fill="None" fill-opacity="0.0" stroke="#FED5D0" stroke-opacity="0.95" stroke-width="0.3"><path d="
M 224.00 397.00 
C 227.81 399.11 222.39 400.38 220.00 400.00
C 220.55 405.19 212.70 415.80 223.00 417.00
C 218.46 417.99 212.27 418.59 208.00 419.00
C 212.08 419.00 216.66 419.68 220.00 420.00
C 228.47 420.00 239.79 421.65 245.74 414.74 C 251.70 407.83 246.51 397.06 238.00 396.00
C 234.45 395.90 228.41 397.00 224.00 397.00 Z"/>
</g>
<g fill="None" fill-opacity="0.0" stroke="#FFE1C9" stroke-opacity="0.05" stroke-width="0.3"><path d="
M 196.00 420.00 
C 203.99 420.16 212.01 420.00 220.00 420.00
C 216.66 419.68 212.08 419.00 208.00 419.00
C 203.96 419.00 199.35 419.74 196.00 420.00 Z"/>
</g>
<g fill="None" fill-opacity="0.0" stroke="#FEE0CD" stroke-opacity="0.96" stroke-width="0.3"><path d="
M 197.00 487.00 
C 192.78 491.18 186.61 498.48 190.26 504.74 C 193.91 511.00 203.10 510.39 207.00 510.00
C 215.80 506.11 227.55 501.12 235.77 496.77 C 243.99 492.42 257.47 489.44 260.00 480.00
C 260.14 476.12 255.65 472.57 257.00 469.00
C 255.08 467.56 251.96 467.50 251.00 465.00
C 241.38 463.15 232.00 470.60 223.23 474.23 C 214.46 477.86 205.18 482.34 197.00 487.00 Z"/>
</g>
<g fill="None" fill-opacity="0.0" stroke="#FDCBCB" stroke-opacity="0.68" stroke-width="0.3"><path d="
M 260.00 480.00 
C 261.89 472.96 258.31 466.41 251.00 465.00
C 251.96 467.50 255.08 467.56 257.00 469.00
C 255.65 472.57 260.14 476.12 260.00 480.00 Z"/>
</g>
<g fill="None" fill-opacity="0.0" stroke="#EFDDF8" stroke-opacity="0.95" stroke-width="0.3"><path d="
M 701.00 488.00 
C 700.18 489.30 698.83 490.36 698.00 492.00
C 697.22 493.54 697.26 493.76 696.00 495.00
C 692.64 498.32 689.64 502.23 687.00 506.00
C 684.73 509.24 680.91 511.88 679.00 513.00
C 636.59 547.84 580.34 545.59 526.00 543.00 C 471.66 540.41 406.57 554.04 360.00 524.00
C 367.89 536.08 388.42 532.82 393.00 545.00
C 390.54 545.14 388.45 542.37 389.00 540.00
C 385.90 541.19 382.26 538.73 379.00 538.00
C 378.41 541.52 376.10 540.07 374.00 541.00
C 373.39 536.88 378.64 540.06 378.00 536.00
C 375.38 538.08 374.69 533.90 373.00 536.00
C 375.03 538.24 370.85 539.36 372.00 542.00
C 369.51 537.45 367.23 543.66 364.00 543.00
C 367.04 538.98 360.59 540.60 362.00 544.00
C 360.78 541.24 359.77 540.96 357.00 543.00
C 360.71 538.35 350.83 536.65 350.00 542.00
C 353.17 542.22 359.88 542.87 360.00 546.00
C 363.40 544.44 367.18 543.76 370.00 542.00
C 367.92 547.03 367.47 546.73 364.00 545.00
C 366.46 547.79 362.70 549.87 360.00 549.00
C 362.14 550.12 363.81 552.62 360.00 553.00
C 382.47 564.11 404.69 568.52 431.00 569.00 C 457.31 569.48 491.57 568.83 518.00 569.00 C 544.43 569.17 578.37 569.48 603.00 568.00 C 627.63 566.52 652.49 561.47 671.77 549.77 C 691.05 538.08 706.76 529.33 718.00 510.00
C 717.47 507.32 721.48 506.66 721.00 504.00
C 715.32 508.89 711.29 515.49 706.00 521.00
C 704.96 518.95 705.49 516.82 703.00 520.00
C 700.40 518.68 702.64 517.11 701.00 515.00
C 697.60 515.89 695.43 516.20 693.00 519.00
C 694.13 513.90 688.06 519.21 687.00 515.00
C 686.73 519.91 684.43 515.82 681.00 515.00
C 688.87 505.98 698.02 496.98 704.00 486.00
C 702.29 485.66 701.92 487.19 701.00 488.00 Z"/>
</g>
<g fill="None" fill-opacity="0.0" stroke="#F9E5C6" stroke-opacity="0.75" stroke-width="0.3"><path d="
M 207.00 510.00 
C 203.10 510.39 193.91 511.00 190.26 504.74 C 186.61 498.48 192.78 491.18 197.00 487.00
C 190.68 490.60 183.75 497.21 187.70 505.30 C 191.65 513.40 200.42 512.91 207.00 510.00 Z"/>
</g>
<g fill="None" fill-opacity="0.0" stroke="#F5CAE4" stroke-opacity="0.54" stroke-width="0.3"><path d="
M 696.00 495.00 
C 697.26 493.76 697.22 493.54 698.00 492.00
C 697.35 492.86 696.58 494.16 696.00 495.00 Z"/>
</g>
<g fill="None" fill-opacity="0.0" stroke="#F1CEE8" stroke-opacity="0.63" stroke-width="0.3"><path d="
M 679.00 513.00 
C 680.91 511.88 684.73 509.24 687.00 506.00
C 685.26 507.99 681.37 511.05 679.00 513.00 Z"/>
</g>
<g fill="None" fill-opacity="0.0" stroke="#E8ECED" stroke-opacity="0.16" stroke-width="0.3"><path d="
M 328.00 591.00 
C 339.61 589.04 352.20 591.74 364.00 591.00 C 375.80 590.26 388.15 591.00 400.00 591.00
C 405.39 591.00 411.36 590.45 416.00 590.00
C 401.57 590.00 385.24 589.10 371.00 590.00 C 356.76 590.90 341.04 587.04 328.00 591.00 Z"/>
</g>
<g fill="None" fill-opacity="0.0" stroke="#D6ECFC" stroke-opacity="0.94" stroke-width="0.3"><path d="
M 400.00 591.00 
C 387.13 592.25 372.59 592.15 359.00 592.00
C 360.58 594.03 358.82 595.74 360.00 598.00
C 354.26 592.25 358.99 602.56 363.00 597.00
C 361.58 598.79 363.35 601.08 364.00 603.00
C 358.23 602.63 357.27 607.51 359.00 610.00
C 353.42 609.17 349.49 614.72 344.00 616.00
C 362.27 614.33 383.52 615.31 401.00 617.00
C 418.21 617.00 435.83 617.09 453.00 617.00 C 470.17 616.91 487.97 617.24 505.00 617.00 C 522.03 616.76 539.22 617.56 556.00 617.00 C 572.78 616.44 591.71 618.22 608.00 617.00 C 624.29 615.78 644.90 619.70 660.00 617.00 C 675.10 614.30 695.43 626.10 703.69 609.69 C 711.96 593.28 688.83 587.14 674.00 590.00 C 659.17 592.86 638.10 588.69 622.00 590.00 C 605.90 591.31 587.72 589.43 571.00 590.00 C 554.28 590.57 536.00 589.75 519.00 590.00 C 502.00 590.25 484.06 589.90 467.00 590.00 C 449.94 590.10 433.04 590.00 416.00 590.00
C 411.36 590.45 405.39 591.00 400.00 591.00 Z"/>
</g>
<g fill="None" fill-opacity="0.0" stroke="#EFEDE8" stroke-opacity="0.96" stroke-width="0.3"><path d="
M 344.00 617.00 
C 343.96 617.00 344.00 616.00 344.00 616.00
C 349.49 614.72 353.42 609.17 359.00 610.00
C 357.27 607.51 358.23 602.63 364.00 603.00
C 363.35 601.08 361.58 598.79 363.00 597.00
C 358.99 602.56 354.26 592.25 360.00 598.00
C 358.82 595.74 360.58 594.03 359.00 592.00
C 372.59 592.15 387.13 592.25 400.00 591.00
C 388.15 591.00 375.80 590.26 364.00 591.00 C 352.20 591.74 339.61 589.04 328.00 591.00
C 319.94 593.45 315.28 601.66 320.08 609.92 C 324.89 618.18 335.38 617.00 344.00 617.00 Z"/>
</g>
<g fill="None" fill-opacity="0.0" stroke="#E8EBEE" stroke-opacity="0.05" stroke-width="0.3"><path d="
M 344.00 617.00 
C 363.00 617.00 382.00 617.00 401.00 617.00
C 383.52 615.31 362.27 614.33 344.00 616.00
C 344.00 616.00 343.96 617.00 344.00 617.00 Z"/>
</g>
<g fill="None" fill-opacity="0.0" stroke="#D9EEFE" stroke-opacity="0.96" stroke-width="0.3"><path d="
M 550.00 705.00 
C 550.08 707.53 551.37 707.89 552.00 710.00
C 556.00 710.00 560.00 710.00 564.00 710.00
C 564.66 741.25 562.67 773.17 565.00 804.00
C 575.39 800.92 590.49 804.98 599.00 803.00
C 599.01 791.99 598.89 782.15 598.00 772.00
C 597.60 767.41 598.00 762.61 598.00 758.00
C 598.00 757.50 598.00 756.50 598.00 756.00
C 598.00 751.33 598.00 746.67 598.00 742.00
C 598.00 742.00 598.00 741.50 598.00 741.00
C 598.00 734.05 597.58 726.94 598.00 720.00
C 598.44 717.69 599.21 715.31 598.00 713.00
C 602.16 711.42 603.74 711.83 599.00 710.00
C 606.41 710.85 617.74 708.01 622.00 712.00
C 624.19 705.73 619.76 694.94 623.00 686.00
C 611.23 684.39 595.73 688.63 598.67 673.67 C 601.61 658.71 609.25 660.78 622.00 660.00
C 622.00 651.67 622.00 643.33 622.00 635.00
C 606.09 634.87 588.59 632.73 576.25 643.25 C 563.90 653.77 563.51 669.26 564.00 685.00
C 559.33 685.00 554.67 685.00 550.00 685.00
C 550.15 691.66 549.80 698.34 550.00 705.00 Z"/>
</g>
<g fill="None" fill-opacity="0.0" stroke="#FEDBE0" stroke-opacity="0.96" stroke-width="0.3"><path d="
M 271.00 713.00 
C 270.92 713.98 273.11 717.24 272.00 719.00
C 276.34 719.84 275.54 721.20 273.00 724.00
C 275.74 724.47 277.56 722.29 279.00 725.00
C 277.04 721.38 277.69 718.21 277.00 714.00
C 279.92 715.37 282.72 719.14 279.00 721.00
C 283.46 721.06 281.74 726.57 285.00 727.00
C 282.45 724.32 287.52 723.82 284.00 722.00
C 287.99 719.61 287.17 728.23 291.00 723.00
C 290.19 725.88 292.90 727.15 295.00 728.00
C 294.31 729.63 293.63 732.20 296.00 733.00
C 294.48 727.71 300.81 726.02 301.00 721.00
C 303.35 722.08 300.66 724.31 301.00 726.00
C 311.37 705.34 343.49 703.16 355.00 724.00
C 366.15 722.04 378.95 724.12 390.00 723.00
C 371.61 673.68 296.79 667.69 271.00 713.00 Z"/>
</g>
<g fill="None" fill-opacity="0.0" stroke="#EDE5FB" stroke-opacity="0.96" stroke-width="0.3"><path d="
M 499.00 698.00 
C 477.90 676.67 437.41 676.79 415.75 701.75 C 394.10 726.71 394.85 764.75 415.25 787.75 C 435.65 810.76 478.51 816.81 501.00 792.00
C 500.41 796.25 502.13 799.32 503.00 804.00
C 511.54 802.95 524.24 801.19 531.00 805.00
C 532.66 764.92 532.66 723.09 531.00 683.00
C 523.66 687.37 508.57 683.89 498.00 685.00
C 500.04 688.88 498.55 693.70 499.00 698.00
M 472.00 709.00 
C 514.21 715.03 507.91 784.81 464.00 781.00 C 420.09 777.19 427.77 702.68 472.00 709.00 Z"/>
</g>
<g fill="None" fill-opacity="0.0" stroke="#D4ECFE" stroke-opacity="0.95" stroke-width="0.3"><path d="
M 763.00 756.00 
C 766.55 722.00 744.60 689.43 711.00 683.00 C 677.40 676.57 643.45 696.88 634.98 729.98 C 626.50 763.07 646.70 798.18 679.33 806.67 C 711.95 815.16 750.73 800.81 760.00 767.00
C 748.73 767.57 736.86 765.80 726.00 768.00
C 722.61 780.46 704.07 783.52 691.67 781.33 C 679.27 779.13 668.82 768.69 667.00 756.00
C 699.00 756.00 731.00 756.00 763.00 756.00
M 730.00 733.00 
C 709.33 733.00 688.67 733.00 668.00 733.00
C 670.96 699.34 725.79 699.85 730.00 733.00 Z"/>
</g>
<g fill="None" fill-opacity="0.0" stroke="#DBE3E4" stroke-opacity="0.02" stroke-width="0.3"><path d="
M 552.00 710.00 
C 551.37 707.89 550.08 707.53 550.00 705.00
C 544.30 706.00 551.83 710.27 550.00 712.00
C 551.97 713.98 553.36 709.69 552.00 710.00 Z"/>
</g>
<g fill="None" fill-opacity="0.0" stroke="#000000" stroke-opacity="0.00" stroke-width="0.3"><path d="
M 730.00 733.00 
C 725.79 699.85 670.96 699.34 668.00 733.00
C 688.67 733.00 709.33 733.00 730.00 733.00 Z"/>
</g>
<g fill="None" fill-opacity="0.0" stroke="#000000" stroke-opacity="0.00" stroke-width="0.3"><path d="
M 472.00 709.00 
C 427.77 702.68 420.09 777.19 464.00 781.00 C 507.91 784.81 514.21 715.03 472.00 709.00 Z"/>
</g>
<g fill="None" fill-opacity="0.0" stroke="#F8EADF" stroke-opacity="0.96" stroke-width="0.3"><path d="
M 352.00 805.00 
C 352.79 804.41 353.46 802.78 354.00 802.00
C 348.05 803.43 342.36 806.01 336.00 806.00
C 335.96 802.60 341.42 801.61 339.00 798.00
C 343.81 803.92 340.97 797.63 347.00 801.00
C 347.50 796.62 346.97 794.47 344.00 791.00
C 347.53 795.69 349.40 788.99 348.00 786.00
C 351.39 788.12 353.16 785.38 356.00 789.00
C 355.34 782.97 348.97 783.99 345.00 785.00
C 341.34 781.22 346.13 780.09 345.00 777.00
C 311.78 796.73 287.53 753.25 301.00 726.00
C 300.66 724.31 303.35 722.08 301.00 721.00
C 300.81 726.02 294.48 727.71 296.00 733.00
C 293.63 732.20 294.31 729.63 295.00 728.00
C 292.90 727.15 290.19 725.88 291.00 723.00
C 287.17 728.23 287.99 719.61 284.00 722.00
C 287.52 723.82 282.45 724.32 285.00 727.00
C 281.74 726.57 283.46 721.06 279.00 721.00
C 282.72 719.14 279.92 715.37 277.00 714.00
C 277.69 718.21 277.04 721.38 279.00 725.00
C 277.56 722.29 275.74 724.47 273.00 724.00
C 275.54 721.20 276.34 719.84 272.00 719.00
C 273.11 717.24 270.92 713.98 271.00 713.00
C 257.54 736.64 258.41 767.59 278.08 787.92 C 297.76 808.24 325.14 814.43 352.00 805.00 Z"/>
</g>
<g fill="None" fill-opacity="0.0" stroke="#F4FFFF" stroke-opacity="0.01" stroke-width="0.3"><path d="
M 598.00 741.00 
C 601.43 736.35 598.28 725.03 598.00 720.00
C 597.58 726.94 598.00 734.05 598.00 741.00 Z"/>
</g>
<g fill="None" fill-opacity="0.0" stroke="#F2FFFF" stroke-opacity="0.01" stroke-width="0.3"><path d="
M 598.00 756.00 
C 599.30 752.94 600.22 745.01 598.00 742.00
C 598.00 746.67 598.00 751.33 598.00 756.00 Z"/>
</g>
<g fill="None" fill-opacity="0.0" stroke="#EAFCFF" stroke-opacity="0.02" stroke-width="0.3"><path d="
M 598.00 772.00 
C 598.04 767.79 599.91 762.50 598.00 758.00
C 598.00 762.61 597.60 767.41 598.00 772.00 Z"/>
</g>
<g fill="None" fill-opacity="0.0" stroke="#F3E3EA" stroke-opacity="0.94" stroke-width="0.3"><path d="
M 345.00 777.00 
C 346.13 780.09 341.34 781.22 345.00 785.00
C 348.97 783.99 355.34 782.97 356.00 789.00
C 353.16 785.38 351.39 788.12 348.00 786.00
C 349.40 788.99 347.53 795.69 344.00 791.00
C 346.97 794.47 347.50 796.62 347.00 801.00
C 340.97 797.63 343.81 803.92 339.00 798.00
C 341.42 801.61 335.96 802.60 336.00 806.00
C 342.36 806.01 348.05 803.43 354.00 802.00
C 353.46 802.78 352.79 804.41 352.00 805.00
C 369.56 798.92 384.55 783.71 390.00 766.00
C 380.83 764.95 371.12 767.40 362.00 766.00 C 352.88 764.60 351.56 773.11 345.00 777.00 Z"/>
</g>
<g fill="#000000" fill-opacity="0.00" stroke="None">
<path d="
M 0.00 1024.00 
L 1024.00 1024.00
L 1024.00 0.00
L 0.00 0.00
L 0.00 1024.00
M 323.00 104.00 
C 334.02 106.17 344.02 112.89 353.70 118.30 C 363.37 123.72 371.22 131.89 380.70 137.30 C 390.18 142.71 396.63 152.86 406.25 157.75 C 415.86 162.64 420.65 176.74 432.07 177.93 C 443.50 179.11 460.67 175.67 474.00 176.00 C 487.33 176.33 505.08 174.37 519.00 175.00 C 532.92 175.63 550.78 175.34 564.00 176.00 C 577.22 176.66 590.29 179.82 599.70 171.70 C 609.10 163.57 615.65 158.06 624.75 150.75 C 633.84 143.44 641.61 137.51 651.00 131.00
C 666.43 120.31 675.85 112.69 694.08 105.08 C 712.30 97.46 728.74 113.26 731.93 132.07 C 735.11 150.89 740.96 170.64 742.33 190.67 C 743.70 210.70 747.64 233.40 748.00 254.00
C 741.22 250.61 734.27 246.13 728.00 242.00
C 687.53 221.99 647.85 212.80 602.00 208.00 C 556.14 203.21 501.35 200.65 455.00 205.00
C 425.03 207.81 394.94 211.05 366.00 218.00
C 360.35 219.36 354.79 221.06 349.00 222.00
C 353.94 224.20 342.53 223.69 337.78 225.78 C 333.03 227.87 325.89 229.64 320.78 231.78 C 315.67 233.91 309.87 236.30 304.77 238.77 C 299.68 241.24 294.25 243.47 289.31 246.31 C 284.36 249.14 280.32 253.16 275.00 255.00
C 277.71 222.69 280.24 188.35 286.00 156.00
C 289.63 136.12 294.29 98.36 323.00 104.00
M 328.00 231.00 
C 326.09 233.49 324.02 230.19 328.00 231.00
M 538.00 233.00 
C 556.39 234.62 574.92 233.76 593.07 235.93 C 611.23 238.09 628.75 239.98 645.00 243.00
C 665.63 246.84 683.51 252.58 702.69 259.31 C 721.87 266.03 737.27 286.56 717.77 299.77 C 698.27 312.98 684.81 316.25 663.00 321.00
C 630.96 327.98 599.38 331.35 566.00 334.00
C 539.45 336.11 512.54 335.00 486.00 335.00
C 464.27 335.00 440.96 333.47 420.00 331.00 C 399.03 328.54 379.01 326.19 358.99 321.01 C 338.97 315.82 326.21 312.27 307.92 301.08 C 289.63 289.89 297.90 269.55 316.23 262.23 C 334.56 254.91 350.24 248.93 370.02 245.02 C 389.81 241.12 411.49 238.29 432.00 236.00
C 466.24 232.17 502.78 229.90 538.00 233.00
M 387.00 240.00 
C 387.61 240.61 385.34 238.34 387.00 240.00
M 333.00 253.00 
C 333.74 253.74 332.18 252.18 333.00 253.00
M 841.00 441.00 
C 822.58 485.71 771.63 510.82 724.00 503.00
C 721.41 504.54 720.76 508.47 718.00 510.00
C 706.76 529.33 691.05 538.08 671.77 549.77 C 652.49 561.47 627.63 566.52 603.00 568.00 C 578.37 569.48 544.43 569.17 518.00 569.00 C 491.57 568.83 457.31 569.48 431.00 569.00 C 404.69 568.52 382.47 564.11 360.00 553.00
C 335.66 540.96 316.65 528.33 301.08 503.92 C 285.51 479.51 273.92 453.68 274.00 422.00 C 274.08 390.31 273.10 346.30 275.00 314.00
C 283.71 321.17 292.24 329.04 303.00 332.00
C 304.32 368.57 299.24 417.60 307.78 451.22 C 316.32 484.84 334.43 503.57 360.00 524.00
C 406.57 554.04 471.66 540.41 526.00 543.00 C 580.34 545.59 636.59 547.84 679.00 513.00
C 681.37 511.05 685.26 507.99 687.00 506.00
C 689.64 502.23 692.64 498.32 696.00 495.00
C 696.58 494.16 697.35 492.86 698.00 492.00
C 698.83 490.36 700.18 489.30 701.00 488.00
C 713.52 468.27 720.40 445.51 722.00 422.00
C 723.03 406.89 721.95 387.26 722.00 373.00 C 722.05 358.74 721.83 344.91 720.00 333.00
C 721.25 332.70 721.71 331.17 723.00 331.00
C 730.94 323.48 741.62 317.75 750.75 310.75 C 759.87 303.74 778.36 311.75 788.69 315.31 C 799.03 318.86 809.86 326.43 818.70 334.30 C 827.54 342.18 832.99 350.85 839.30 361.70 C 845.61 372.54 847.78 386.34 849.00 400.00 C 850.22 413.66 845.95 428.99 841.00 441.00
M 458.00 379.00 
C 461.26 392.81 457.87 413.16 459.00 427.00 C 460.13 440.84 453.88 453.11 442.30 459.30 C 430.73 465.49 414.94 459.13 409.00 448.00
C 401.12 433.23 406.92 412.10 405.00 396.00 C 403.08 379.90 408.67 364.25 424.02 359.02 C 439.38 353.80 454.54 364.37 458.00 379.00
M 603.00 361.00 
C 628.09 373.68 616.37 410.64 617.07 435.07 C 617.77 459.51 580.77 472.26 568.00 447.00
C 558.98 429.15 565.65 402.94 564.33 383.33 C 563.01 363.72 586.66 352.74 603.00 361.00
M 220.00 420.00 
C 212.01 420.00 203.99 420.16 196.00 420.00
C 188.38 419.85 179.30 420.24 176.08 411.92 C 172.85 403.61 178.38 396.47 187.00 396.00
C 203.14 395.12 221.97 394.01 238.00 396.00
C 246.51 397.06 251.70 407.83 245.74 414.74 C 239.79 421.65 228.47 420.00 220.00 420.00
M 251.00 465.00 
C 258.31 466.41 261.89 472.96 260.00 480.00
C 257.47 489.44 243.99 492.42 235.77 496.77 C 227.55 501.12 215.80 506.11 207.00 510.00
C 200.42 512.91 191.65 513.40 187.70 505.30 C 183.75 497.21 190.68 490.60 197.00 487.00
C 205.18 482.34 214.46 477.86 223.23 474.23 C 232.00 470.60 241.38 463.15 251.00 465.00
M 401.00 617.00 
C 382.00 617.00 363.00 617.00 344.00 617.00
C 335.38 617.00 324.89 618.18 320.08 609.92 C 315.28 601.66 319.94 593.45 328.00 591.00
C 341.04 587.04 356.76 590.90 371.00 590.00 C 385.24 589.10 401.57 590.00 416.00 590.00
C 433.04 590.00 449.94 590.10 467.00 590.00 C 484.06 589.90 502.00 590.25 519.00 590.00 C 536.00 589.75 554.28 590.57 571.00 590.00 C 587.72 589.43 605.90 591.31 622.00 590.00 C 638.10 588.69 659.17 592.86 674.00 590.00 C 688.83 587.14 711.96 593.28 703.69 609.69 C 695.43 626.10 675.10 614.30 660.00 617.00 C 644.90 619.70 624.29 615.78 608.00 617.00 C 591.71 618.22 572.78 616.44 556.00 617.00 C 539.22 617.56 522.03 616.76 505.00 617.00 C 487.97 617.24 470.17 616.91 453.00 617.00 C 435.83 617.09 418.21 617.00 401.00 617.00
M 598.00 720.00 
C 598.28 725.03 601.43 736.35 598.00 741.00
C 598.00 741.50 598.00 742.00 598.00 742.00
C 600.22 745.01 599.30 752.94 598.00 756.00
C 598.00 756.50 598.00 757.50 598.00 758.00
C 599.91 762.50 598.04 767.79 598.00 772.00
C 598.89 782.15 599.01 791.99 599.00 803.00
C 590.49 804.98 575.39 800.92 565.00 804.00
C 562.67 773.17 564.66 741.25 564.00 710.00
C 560.00 710.00 556.00 710.00 552.00 710.00
C 553.36 709.69 551.97 713.98 550.00 712.00
C 551.83 710.27 544.30 706.00 550.00 705.00
C 549.80 698.34 550.15 691.66 550.00 685.00
C 554.67 685.00 559.33 685.00 564.00 685.00
C 563.51 669.26 563.90 653.77 576.25 643.25 C 588.59 632.73 606.09 634.87 622.00 635.00
C 622.00 643.33 622.00 651.67 622.00 660.00
C 609.25 660.78 601.61 658.71 598.67 673.67 C 595.73 688.63 611.23 684.39 623.00 686.00
C 619.76 694.94 624.19 705.73 622.00 712.00
C 617.74 708.01 606.41 710.85 599.00 710.00
C 603.74 711.83 602.16 711.42 598.00 713.00
C 599.21 715.31 598.44 717.69 598.00 720.00
M 301.00 726.00 
C 287.53 753.25 311.78 796.73 345.00 777.00
C 351.56 773.11 352.88 764.60 362.00 766.00 C 371.12 767.40 380.83 764.95 390.00 766.00
C 384.55 783.71 369.56 798.92 352.00 805.00
C 325.14 814.43 297.76 808.24 278.08 787.92 C 258.41 767.59 257.54 736.64 271.00 713.00
C 296.79 667.69 371.61 673.68 390.00 723.00
C 378.95 724.12 366.15 722.04 355.00 724.00
C 343.49 703.16 311.37 705.34 301.00 726.00
M 499.00 698.00 
C 498.55 693.70 500.04 688.88 498.00 685.00
C 508.57 683.89 523.66 687.37 531.00 683.00
C 532.66 723.09 532.66 764.92 531.00 805.00
C 524.24 801.19 511.54 802.95 503.00 804.00
C 502.13 799.32 500.41 796.25 501.00 792.00
C 478.51 816.81 435.65 810.76 415.25 787.75 C 394.85 764.75 394.10 726.71 415.75 701.75 C 437.41 676.79 477.90 676.67 499.00 698.00
M 763.00 756.00 
C 731.00 756.00 699.00 756.00 667.00 756.00
C 668.82 768.69 679.27 779.13 691.67 781.33 C 704.07 783.52 722.61 780.46 726.00 768.00
C 736.86 765.80 748.73 767.57 760.00 767.00
C 750.73 800.81 711.95 815.16 679.33 806.67 C 646.70 798.18 626.50 763.07 634.98 729.98 C 643.45 696.88 677.40 676.57 711.00 683.00 C 744.60 689.43 766.55 722.00 763.00 756.00 Z"/>
</g>
<g fill="#FEC1D3" fill-opacity="0.98" stroke="None">
<path d="
M 286.00 156.00 
C 286.36 155.21 290.22 152.94 290.00 151.00
C 290.41 154.18 288.31 156.72 289.00 160.00
C 293.15 155.13 294.40 166.51 288.00 165.00
C 290.92 165.63 294.22 165.78 292.00 170.00
C 295.38 165.78 300.26 163.94 306.00 162.00
C 304.82 164.59 306.47 167.00 306.00 170.00
C 300.21 170.08 306.97 171.58 309.00 172.00
C 310.87 169.03 305.56 167.78 308.00 166.00
C 310.10 167.37 312.83 169.01 310.00 171.00
C 314.37 169.41 319.07 171.92 317.00 178.00
C 319.23 181.17 318.37 174.28 321.00 177.00
C 320.19 178.96 318.73 181.08 320.00 183.00
C 323.96 181.89 326.89 184.28 323.00 180.00
C 325.30 180.40 328.37 180.46 330.00 182.00
C 328.34 183.38 327.14 188.60 331.00 190.00
C 332.63 187.97 331.18 184.01 335.00 183.00
C 337.53 186.88 339.20 200.00 344.00 192.00
C 343.83 194.72 344.61 197.67 343.00 200.00
C 346.39 198.69 348.27 201.66 351.00 199.00
C 348.14 202.53 354.10 203.65 352.00 207.00
C 354.88 207.94 356.91 207.42 360.00 208.00
C 354.17 209.21 358.31 210.68 362.00 212.00
C 358.39 216.46 366.28 214.77 366.00 218.00
C 394.94 211.05 425.03 207.81 455.00 205.00
C 453.14 204.73 450.32 203.09 448.00 203.00
C 451.03 201.88 448.13 199.35 446.00 199.00
C 446.90 195.86 447.79 196.02 446.00 193.00
C 441.68 194.76 445.08 195.91 445.00 199.00
C 440.93 196.58 437.00 190.47 432.00 195.00
C 433.70 188.55 428.02 188.75 431.00 184.00
C 426.98 184.21 428.24 183.60 425.00 186.00
C 423.29 183.97 424.69 181.04 423.00 179.00
C 422.62 184.66 420.35 180.29 417.00 181.00
C 416.49 177.72 416.12 176.29 412.00 176.00
C 416.95 171.22 411.13 172.30 407.00 172.00
C 408.66 169.82 405.11 168.55 407.00 166.00
C 404.62 169.33 403.05 165.47 400.00 166.00
C 402.77 163.41 397.28 162.69 400.00 160.00
C 396.16 159.52 398.59 163.56 395.00 163.00
C 391.45 160.78 390.78 156.74 393.00 153.00
C 390.47 153.29 388.97 154.05 387.00 152.00
C 391.47 158.78 374.52 153.51 380.00 150.00
C 375.37 150.01 373.68 147.91 376.00 144.00
C 371.86 144.41 369.51 140.66 367.00 145.00
C 368.47 140.21 363.15 134.31 359.00 136.00
C 359.48 132.31 361.53 131.51 358.00 129.00
C 354.89 132.54 347.30 127.52 349.00 123.00
C 344.50 124.86 344.92 120.19 344.00 115.00
C 340.66 112.81 335.39 111.86 332.26 109.74 C 329.13 107.63 322.39 107.36 323.00 104.00
C 294.29 98.36 289.63 136.12 286.00 156.00 Z"/>
</g>
<g fill="#FEDAC6" fill-opacity="0.98" stroke="None">
<path d="
M 651.00 131.00 
C 655.09 129.53 663.42 124.58 667.00 131.00
C 664.11 129.18 664.12 132.58 661.00 132.00
C 664.73 133.73 660.44 134.71 662.00 137.00
C 664.17 135.47 665.92 139.52 669.00 139.00
C 668.97 144.34 670.36 147.93 672.00 153.00
C 675.66 149.18 682.43 155.67 687.00 151.00
C 684.17 153.96 681.33 156.26 680.00 160.00
C 685.12 161.40 687.92 168.67 694.00 169.00
C 687.10 171.02 699.18 180.35 697.00 173.00
C 698.96 175.40 702.05 180.98 699.00 183.00
C 704.75 182.45 701.00 184.36 700.00 187.00
C 704.58 182.67 710.01 187.61 707.00 193.00
C 710.14 187.16 711.64 192.13 710.00 197.00
C 714.54 194.35 714.61 199.16 718.00 199.00
C 715.39 200.05 717.63 202.00 716.00 204.00
C 720.68 202.35 721.06 208.22 719.00 212.00
C 722.48 213.67 727.34 214.15 724.00 218.00
C 731.47 219.19 726.58 225.07 727.00 231.00
C 731.61 233.04 733.68 232.28 736.00 236.00
C 735.21 238.30 727.24 238.98 728.00 242.00
C 734.27 246.13 741.22 250.61 748.00 254.00
C 747.64 233.40 743.70 210.70 742.33 190.67 C 740.96 170.64 735.11 150.89 731.93 132.07 C 728.74 113.26 712.30 97.46 694.08 105.08 C 675.85 112.69 666.43 120.31 651.00 131.00 Z"/>
</g>
<g fill="#FECFC9" fill-opacity="0.97" stroke="None">
<path d="
M 455.00 205.00 
C 501.35 200.65 556.14 203.21 602.00 208.00 C 647.85 212.80 687.53 221.99 728.00 242.00
C 727.24 238.98 735.21 238.30 736.00 236.00
C 733.68 232.28 731.61 233.04 727.00 231.00
C 726.58 225.07 731.47 219.19 724.00 218.00
C 727.34 214.15 722.48 213.67 719.00 212.00
C 721.06 208.22 720.68 202.35 716.00 204.00
C 717.63 202.00 715.39 200.05 718.00 199.00
C 714.61 199.16 714.54 194.35 710.00 197.00
C 711.64 192.13 710.14 187.16 707.00 193.00
C 710.01 187.61 704.58 182.67 700.00 187.00
C 701.00 184.36 704.75 182.45 699.00 183.00
C 702.05 180.98 698.96 175.40 697.00 173.00
C 699.18 180.35 687.10 171.02 694.00 169.00
C 687.92 168.67 685.12 161.40 680.00 160.00
C 681.33 156.26 684.17 153.96 687.00 151.00
C 682.43 155.67 675.66 149.18 672.00 153.00
C 670.36 147.93 668.97 144.34 669.00 139.00
C 665.92 139.52 664.17 135.47 662.00 137.00
C 660.44 134.71 664.73 133.73 661.00 132.00
C 664.12 132.58 664.11 129.18 667.00 131.00
C 663.42 124.58 655.09 129.53 651.00 131.00
C 641.61 137.51 633.84 143.44 624.75 150.75 C 615.65 158.06 609.10 163.57 599.70 171.70 C 590.29 179.82 577.22 176.66 564.00 176.00 C 550.78 175.34 532.92 175.63 519.00 175.00 C 505.08 174.37 487.33 176.33 474.00 176.00 C 460.67 175.67 443.50 179.11 432.07 177.93 C 420.65 176.74 415.86 162.64 406.25 157.75 C 396.63 152.86 390.18 142.71 380.70 137.30 C 371.22 131.89 363.37 123.72 353.70 118.30 C 344.02 112.89 334.02 106.17 323.00 104.00
C 322.39 107.36 329.13 107.63 332.26 109.74 C 335.39 111.86 340.66 112.81 344.00 115.00
C 344.92 120.19 344.50 124.86 349.00 123.00
C 347.30 127.52 354.89 132.54 358.00 129.00
C 361.53 131.51 359.48 132.31 359.00 136.00
C 363.15 134.31 368.47 140.21 367.00 145.00
C 369.51 140.66 371.86 144.41 376.00 144.00
C 373.68 147.91 375.37 150.01 380.00 150.00
C 374.52 153.51 391.47 158.78 387.00 152.00
C 388.97 154.05 390.47 153.29 393.00 153.00
C 390.78 156.74 391.45 160.78 395.00 163.00
C 398.59 163.56 396.16 159.52 400.00 160.00
C 397.28 162.69 402.77 163.41 400.00 166.00
C 403.05 165.47 404.62 169.33 407.00 166.00
C 405.11 168.55 408.66 169.82 407.00 172.00
C 411.13 172.30 416.95 171.22 412.00 176.00
C 416.12 176.29 416.49 177.72 417.00 181.00
C 420.35 180.29 422.62 184.66 423.00 179.00
C 424.69 181.04 423.29 183.97 425.00 186.00
C 428.24 183.60 426.98 184.21 431.00 184.00
C 428.02 188.75 433.70 188.55 432.00 195.00
C 437.00 190.47 440.93 196.58 445.00 199.00
C 445.08 195.91 441.68 194.76 446.00 193.00
C 447.79 196.02 446.90 195.86 446.00 199.00
C 448.13 199.35 451.03 201.88 448.00 203.00
C 450.32 203.09 453.14 204.73 455.00 205.00 Z"/>
</g>
<g fill="#FEB7E2" fill-opacity="0.97" stroke="None">
<path d="
M 286.00 156.00 
C 280.24 188.35 277.71 222.69 275.00 255.00
C 280.32 253.16 284.36 249.14 289.31 246.31 C 294.25 243.47 299.68 241.24 304.77 238.77 C 309.87 236.30 315.67 233.91 320.78 231.78 C 325.89 229.64 333.03 227.87 337.78 225.78 C 342.53 223.69 353.94 224.20 349.00 222.00
C 354.79 221.06 360.35 219.36 366.00 218.00
C 366.28 214.77 358.39 216.46 362.00 212.00
C 358.31 210.68 354.17 209.21 360.00 208.00
C 356.91 207.42 354.88 207.94 352.00 207.00
C 354.10 203.65 348.14 202.53 351.00 199.00
C 348.27 201.66 346.39 198.69 343.00 200.00
C 344.61 197.67 343.83 194.72 344.00 192.00
C 339.20 200.00 337.53 186.88 335.00 183.00
C 331.18 184.01 332.63 187.97 331.00 190.00
C 327.14 188.60 328.34 183.38 330.00 182.00
C 328.37 180.46 325.30 180.40 323.00 180.00
C 326.89 184.28 323.96 181.89 320.00 183.00
C 318.73 181.08 320.19 178.96 321.00 177.00
C 318.37 174.28 319.23 181.17 317.00 178.00
C 319.07 171.92 314.37 169.41 310.00 171.00
C 312.83 169.01 310.10 167.37 308.00 166.00
C 305.56 167.78 310.87 169.03 309.00 172.00
C 306.97 171.58 300.21 170.08 306.00 170.00
C 306.47 167.00 304.82 164.59 306.00 162.00
C 300.26 163.94 295.38 165.78 292.00 170.00
C 294.22 165.78 290.92 165.63 288.00 165.00
C 294.40 166.51 293.15 155.13 289.00 160.00
C 288.31 156.72 290.41 154.18 290.00 151.00
C 290.22 152.94 286.36 155.21 286.00 156.00 Z"/>
</g>
<g fill="#FFE9E9" fill-opacity="0.01" stroke="None">
<path d="
M 328.00 231.00 
C 324.02 230.19 326.09 233.49 328.00 231.00 Z"/>
</g>
<g fill="#FEC3D0" fill-opacity="0.97" stroke="None">
<path d="
M 432.00 236.00 
C 431.11 236.28 425.56 238.53 425.00 240.00
C 429.02 239.85 439.85 235.16 439.00 243.00
C 440.96 241.03 442.82 240.49 446.00 239.00
C 447.48 242.95 452.30 241.14 452.00 237.00
C 454.09 239.18 454.45 240.89 457.00 239.00
C 456.29 241.62 456.87 245.64 454.00 247.00
C 457.49 248.23 457.92 249.83 456.00 252.00
C 460.26 255.03 460.26 253.45 464.00 258.00
C 466.50 258.08 466.05 254.66 466.00 252.00
C 467.43 254.26 468.31 257.86 466.00 260.00
C 470.31 260.15 472.01 259.38 469.00 263.00
C 475.41 263.62 477.92 269.45 475.00 275.00
C 478.90 274.40 482.35 277.45 479.00 280.00
C 482.30 282.00 481.23 274.21 486.00 276.00
C 489.70 281.79 481.55 279.15 481.00 285.00
C 484.03 285.60 484.35 288.00 488.00 288.00
C 485.51 290.47 489.35 291.72 491.00 293.00
C 493.23 290.89 492.57 286.32 490.00 290.00
C 485.55 284.42 492.04 284.19 494.00 283.00
C 494.02 285.69 491.75 288.77 496.00 287.00
C 493.98 288.92 494.17 290.85 497.00 289.00
C 497.27 291.75 493.71 292.68 493.00 295.00
C 498.70 295.30 497.10 295.97 495.00 298.00
C 497.12 299.76 498.82 301.41 500.00 304.00
C 504.58 300.57 504.08 303.57 508.00 300.00
C 508.01 302.38 506.17 306.85 511.00 303.00
C 510.83 306.41 505.47 308.51 512.00 307.00
C 509.86 311.20 515.86 311.90 512.00 316.00
C 517.56 313.95 516.98 319.17 518.80 322.25 C 520.63 325.32 526.52 327.24 526.00 332.00
C 513.21 334.54 497.53 330.44 486.00 335.00
C 512.54 335.00 539.45 336.11 566.00 334.00
C 566.99 333.50 569.13 330.58 570.00 329.00
C 567.84 328.49 563.46 328.07 566.00 325.00
C 563.50 322.97 561.35 323.93 558.00 323.00
C 561.45 317.76 544.01 310.61 553.00 308.00
C 550.37 307.85 550.92 303.43 547.00 305.00
C 551.88 300.96 545.81 296.85 541.00 298.00
C 538.16 292.10 545.41 288.90 546.00 284.00
C 541.46 289.05 539.89 282.56 535.00 281.00
C 536.65 278.34 541.60 278.71 540.00 274.00
C 537.12 278.25 536.26 272.54 540.00 272.00
C 537.53 272.00 535.27 269.41 533.00 271.00
C 532.01 267.10 531.86 264.91 534.00 263.00
C 532.83 260.06 527.42 261.19 530.00 257.00
C 526.55 255.79 525.56 254.15 525.00 258.00
C 524.35 253.86 521.92 253.46 520.00 257.00
C 518.89 253.44 520.79 251.01 523.00 248.00
C 518.95 246.86 516.12 243.41 514.00 240.00
C 511.85 241.42 511.26 241.72 508.00 243.00
C 507.66 240.10 507.59 238.29 504.00 240.00
C 504.65 236.37 507.26 236.13 512.00 236.00
C 508.63 232.31 517.97 234.66 522.00 234.00 C 526.03 233.34 534.51 235.32 538.00 233.00
C 502.78 229.90 466.24 232.17 432.00 236.00 Z"/>
</g>
<g fill="#FECFC7" fill-opacity="0.98" stroke="None">
<path d="
M 538.00 233.00 
C 534.51 235.32 526.03 233.34 522.00 234.00 C 517.97 234.66 508.63 232.31 512.00 236.00
C 507.26 236.13 504.65 236.37 504.00 240.00
C 507.59 238.29 507.66 240.10 508.00 243.00
C 511.26 241.72 511.85 241.42 514.00 240.00
C 516.12 243.41 518.95 246.86 523.00 248.00
C 520.79 251.01 518.89 253.44 520.00 257.00
C 521.92 253.46 524.35 253.86 525.00 258.00
C 525.56 254.15 526.55 255.79 530.00 257.00
C 527.42 261.19 532.83 260.06 534.00 263.00
C 531.86 264.91 532.01 267.10 533.00 271.00
C 535.27 269.41 537.53 272.00 540.00 272.00
C 536.26 272.54 537.12 278.25 540.00 274.00
C 541.60 278.71 536.65 278.34 535.00 281.00
C 539.89 282.56 541.46 289.05 546.00 284.00
C 545.41 288.90 538.16 292.10 541.00 298.00
C 545.81 296.85 551.88 300.96 547.00 305.00
C 550.92 303.43 550.37 307.85 553.00 308.00
C 544.01 310.61 561.45 317.76 558.00 323.00
C 561.35 323.93 563.50 322.97 566.00 325.00
C 563.46 328.07 567.84 328.49 570.00 329.00
C 569.13 330.58 566.99 333.50 566.00 334.00
C 599.38 331.35 630.96 327.98 663.00 321.00
C 669.43 317.18 678.10 315.92 681.00 309.00
C 675.46 313.34 671.99 302.33 667.00 308.00
C 664.74 305.28 669.39 304.58 666.00 302.00
C 669.59 305.77 677.02 300.08 671.00 297.00
C 673.76 297.41 676.39 297.06 677.00 294.00
C 675.13 294.01 672.34 293.05 670.00 292.00
C 674.14 287.08 667.40 288.76 664.00 286.00
C 666.78 285.12 667.96 282.47 665.00 282.00
C 663.44 280.70 668.79 280.72 670.00 280.00
C 668.56 277.71 665.50 277.09 665.00 274.00
C 662.98 278.89 664.05 273.56 661.00 275.00
C 664.29 271.43 659.67 269.48 663.00 267.00
C 660.24 265.86 658.48 265.69 656.00 264.00
C 660.44 260.99 654.38 260.22 658.00 256.00
C 652.96 257.97 653.54 249.63 658.00 251.00
C 654.45 248.97 649.86 243.82 647.00 248.00
C 646.05 245.93 642.70 245.64 645.00 243.00
C 628.75 239.98 611.23 238.09 593.07 235.93 C 574.92 233.76 556.39 234.62 538.00 233.00 Z"/>
</g>
<g fill="#FEB8DD" fill-opacity="0.98" stroke="None">
<path d="
M 486.00 335.00 
C 497.53 330.44 513.21 334.54 526.00 332.00
C 526.52 327.24 520.63 325.32 518.80 322.25 C 516.98 319.17 517.56 313.95 512.00 316.00
C 515.86 311.90 509.86 311.20 512.00 307.00
C 505.47 308.51 510.83 306.41 511.00 303.00
C 506.17 306.85 508.01 302.38 508.00 300.00
C 504.08 303.57 504.58 300.57 500.00 304.00
C 498.82 301.41 497.12 299.76 495.00 298.00
C 497.10 295.97 498.70 295.30 493.00 295.00
C 493.71 292.68 497.27 291.75 497.00 289.00
C 494.17 290.85 493.98 288.92 496.00 287.00
C 491.75 288.77 494.02 285.69 494.00 283.00
C 492.04 284.19 485.55 284.42 490.00 290.00
C 492.57 286.32 493.23 290.89 491.00 293.00
C 489.35 291.72 485.51 290.47 488.00 288.00
C 484.35 288.00 484.03 285.60 481.00 285.00
C 481.55 279.15 489.70 281.79 486.00 276.00
C 481.23 274.21 482.30 282.00 479.00 280.00
C 482.35 277.45 478.90 274.40 475.00 275.00
C 477.92 269.45 475.41 263.62 469.00 263.00
C 472.01 259.38 470.31 260.15 466.00 260.00
C 468.31 257.86 467.43 254.26 466.00 252.00
C 466.05 254.66 466.50 258.08 464.00 258.00
C 460.26 253.45 460.26 255.03 456.00 252.00
C 457.92 249.83 457.49 248.23 454.00 247.00
C 456.87 245.64 456.29 241.62 457.00 239.00
C 454.45 240.89 454.09 239.18 452.00 237.00
C 452.30 241.14 447.48 242.95 446.00 239.00
C 442.82 240.49 440.96 241.03 439.00 243.00
C 439.85 235.16 429.02 239.85 425.00 240.00
C 425.56 238.53 431.11 236.28 432.00 236.00
C 411.49 238.29 389.81 241.12 370.02 245.02 C 350.24 248.93 334.56 254.91 316.23 262.23 C 297.90 269.55 289.63 289.89 307.92 301.08 C 326.21 312.27 338.97 315.82 358.99 321.01 C 379.01 326.19 399.03 328.54 420.00 331.00 C 440.96 333.47 464.27 335.00 486.00 335.00 Z"/>
</g>
<g fill="#FFD5FF" fill-opacity="0.01" stroke="None">
<path d="
M 387.00 240.00 
C 385.34 238.34 387.61 240.61 387.00 240.00 Z"/>
</g>
<g fill="#FEDBC2" fill-opacity="0.97" stroke="None">
<path d="
M 663.00 321.00 
C 684.81 316.25 698.27 312.98 717.77 299.77 C 737.27 286.56 721.87 266.03 702.69 259.31 C 683.51 252.58 665.63 246.84 645.00 243.00
C 642.70 245.64 646.05 245.93 647.00 248.00
C 649.86 243.82 654.45 248.97 658.00 251.00
C 653.54 249.63 652.96 257.97 658.00 256.00
C 654.38 260.22 660.44 260.99 656.00 264.00
C 658.48 265.69 660.24 265.86 663.00 267.00
C 659.67 269.48 664.29 271.43 661.00 275.00
C 664.05 273.56 662.98 278.89 665.00 274.00
C 665.50 277.09 668.56 277.71 670.00 280.00
C 668.79 280.72 663.44 280.70 665.00 282.00
C 667.96 282.47 666.78 285.12 664.00 286.00
C 667.40 288.76 674.14 287.08 670.00 292.00
C 672.34 293.05 675.13 294.01 677.00 294.00
C 676.39 297.06 673.76 297.41 671.00 297.00
C 677.02 300.08 669.59 305.77 666.00 302.00
C 669.39 304.58 664.74 305.28 667.00 308.00
C 671.99 302.33 675.46 313.34 681.00 309.00
C 678.10 315.92 669.43 317.18 663.00 321.00 Z"/>
</g>
<g fill="#FF80FF" fill-opacity="0.01" stroke="None">
<path d="
M 333.00 253.00 
C 332.18 252.18 333.74 253.74 333.00 253.00 Z"/>
</g>
<g fill="#FED4D4" fill-opacity="0.97" stroke="None">
<path d="
M 723.00 331.00 
C 719.63 339.70 724.46 351.55 723.00 361.00 C 721.54 370.45 723.52 381.17 723.00 391.00 C 722.48 400.83 723.00 412.04 723.00 422.00
C 723.00 425.00 723.00 428.00 723.00 431.00
C 725.98 417.32 722.03 400.98 725.00 387.00
C 727.06 389.05 728.90 387.97 731.00 390.00
C 731.18 385.31 727.44 387.61 725.00 385.00
C 727.61 379.31 729.77 384.17 734.00 383.00
C 734.78 387.59 739.92 387.32 738.00 392.00
C 740.76 391.58 745.83 392.13 744.00 397.00
C 747.47 398.57 747.72 397.36 748.00 394.00
C 752.47 404.22 749.29 418.58 749.00 430.00
C 751.09 428.80 748.76 424.56 752.00 424.00
C 752.08 422.34 752.00 420.66 752.00 419.00
C 751.13 410.79 750.40 399.83 751.00 391.00 C 751.60 382.17 749.96 370.29 751.00 362.00 C 752.04 353.71 748.36 340.31 752.00 336.00
C 757.32 329.69 775.58 337.79 783.08 341.92 C 790.57 346.06 800.14 354.06 805.75 362.25 C 811.37 370.43 817.14 381.47 818.78 392.22 C 820.41 402.98 819.23 418.60 815.00 429.00
C 815.90 432.61 823.24 428.02 817.00 426.00
C 818.96 428.04 822.31 426.55 820.00 424.00
C 822.54 424.00 824.26 426.60 827.00 426.00
C 825.20 426.82 820.95 429.28 826.00 429.00
C 823.95 430.34 825.05 431.56 823.00 433.00
C 824.59 434.97 826.03 437.77 829.00 436.00
C 830.82 439.95 822.83 437.99 828.00 440.00
C 828.64 443.20 824.27 439.53 824.00 443.00
C 826.56 444.08 829.46 442.54 832.00 444.00
C 831.78 447.87 829.29 450.31 833.00 453.00
C 835.85 450.05 839.05 438.47 841.00 441.00
C 845.95 428.99 850.22 413.66 849.00 400.00 C 847.78 386.34 845.61 372.54 839.30 361.70 C 832.99 350.85 827.54 342.18 818.70 334.30 C 809.86 326.43 799.03 318.86 788.69 315.31 C 778.36 311.75 759.87 303.74 750.75 310.75 C 741.62 317.75 730.94 323.48 723.00 331.00 Z"/>
</g>
<g fill="#FDD5EB" fill-opacity="0.95" stroke="None">
<path d="
M 360.00 553.00 
C 363.81 552.62 362.14 550.12 360.00 549.00
C 362.70 549.87 366.46 547.79 364.00 545.00
C 367.47 546.73 367.92 547.03 370.00 542.00
C 367.18 543.76 363.40 544.44 360.00 546.00
C 359.88 542.87 353.17 542.22 350.00 542.00
C 350.83 536.65 360.71 538.35 357.00 543.00
C 359.77 540.96 360.78 541.24 362.00 544.00
C 360.59 540.60 367.04 538.98 364.00 543.00
C 367.23 543.66 369.51 537.45 372.00 542.00
C 370.85 539.36 375.03 538.24 373.00 536.00
C 374.69 533.90 375.38 538.08 378.00 536.00
C 378.64 540.06 373.39 536.88 374.00 541.00
C 376.10 540.07 378.41 541.52 379.00 538.00
C 382.26 538.73 385.90 541.19 389.00 540.00
C 388.45 542.37 390.54 545.14 393.00 545.00
C 388.42 532.82 367.89 536.08 360.00 524.00
C 334.43 503.57 316.32 484.84 307.78 451.22 C 299.24 417.60 304.32 368.57 303.00 332.00
C 292.24 329.04 283.71 321.17 275.00 314.00
C 273.10 346.30 274.08 390.31 274.00 422.00 C 273.92 453.68 285.51 479.51 301.08 503.92 C 316.65 528.33 335.66 540.96 360.00 553.00 Z"/>
</g>
<g fill="#FED0D3" fill-opacity="0.64" stroke="None">
<path d="
M 722.00 422.00 
C 722.01 421.94 723.00 422.00 723.00 422.00
C 723.00 412.04 722.48 400.83 723.00 391.00 C 723.52 381.17 721.54 370.45 723.00 361.00 C 724.46 351.55 719.63 339.70 723.00 331.00
C 721.71 331.17 721.25 332.70 720.00 333.00
C 721.83 344.91 722.05 358.74 722.00 373.00 C 721.95 387.26 723.03 406.89 722.00 422.00 Z"/>
</g>
<g fill="#000000" fill-opacity="0.00" stroke="None">
<path d="
M 752.00 336.00 
C 749.07 344.05 753.22 354.29 752.00 363.00 C 750.78 371.71 752.45 381.99 752.00 391.00 C 751.55 400.01 751.99 409.91 752.00 419.00
C 752.00 420.66 752.08 422.34 752.00 424.00
C 751.08 442.01 745.44 459.48 739.00 476.00
C 771.21 478.44 803.34 458.71 815.00 429.00
C 819.23 418.60 820.41 402.98 818.78 392.22 C 817.14 381.47 811.37 370.43 805.75 362.25 C 800.14 354.06 790.57 346.06 783.08 341.92 C 775.58 337.79 757.32 329.69 752.00 336.00 Z"/>
</g>
<g fill="#FEB9C1" fill-opacity="0.90" stroke="None">
<path d="
M 752.00 419.00 
C 751.99 409.91 751.55 400.01 752.00 391.00 C 752.45 381.99 750.78 371.71 752.00 363.00 C 753.22 354.29 749.07 344.05 752.00 336.00
C 748.36 340.31 752.04 353.71 751.00 362.00 C 749.96 370.29 751.60 382.17 751.00 391.00 C 750.40 399.83 751.13 410.79 752.00 419.00 Z"/>
</g>
<g fill="#FECFCC" fill-opacity="0.97" stroke="None">
<path d="
M 409.00 448.00 
C 411.28 450.50 417.85 454.82 422.00 456.00
C 421.19 454.16 421.74 452.72 420.00 451.00
C 426.74 454.25 419.32 442.58 426.00 445.00
C 420.98 439.84 427.83 437.05 430.24 433.23 C 432.64 429.41 433.03 423.92 433.00 418.00
C 436.63 417.00 441.37 413.57 438.00 411.00
C 442.91 408.77 445.16 407.78 450.00 406.00
C 445.66 403.66 452.23 398.51 456.00 400.00
C 457.24 393.46 453.46 383.13 458.00 379.00
C 454.54 364.37 439.38 353.80 424.02 359.02 C 408.67 364.25 403.08 379.90 405.00 396.00 C 406.92 412.10 401.12 433.23 409.00 448.00 Z"/>
</g>
<g fill="#FED3C8" fill-opacity="0.97" stroke="None">
<path d="
M 568.00 447.00 
C 569.24 448.39 572.62 447.49 573.00 451.00
C 582.22 450.85 580.74 439.87 587.00 438.00
C 585.86 434.92 586.96 433.33 589.00 431.00
C 579.32 427.06 595.95 420.29 589.00 414.00
C 592.32 414.65 591.63 409.33 595.00 410.00
C 591.96 406.85 594.67 406.78 597.00 409.00
C 597.03 404.70 601.59 399.70 599.00 397.00
C 604.71 393.45 611.16 387.76 607.00 383.00
C 609.65 380.71 613.41 379.13 615.00 383.00
C 614.42 379.55 614.57 372.81 610.00 373.00
C 613.09 369.13 601.81 365.73 603.00 361.00
C 586.66 352.74 563.01 363.72 564.33 383.33 C 565.65 402.94 558.98 429.15 568.00 447.00 Z"/>
</g>
<g fill="#FEE0CB" fill-opacity="0.95" stroke="None">
<path d="
M 568.00 447.00 
C 580.77 472.26 617.77 459.51 617.07 435.07 C 616.37 410.64 628.09 373.68 603.00 361.00
C 601.81 365.73 613.09 369.13 610.00 373.00
C 614.57 372.81 614.42 379.55 615.00 383.00
C 613.41 379.13 609.65 380.71 607.00 383.00
C 611.16 387.76 604.71 393.45 599.00 397.00
C 601.59 399.70 597.03 404.70 597.00 409.00
C 594.67 406.78 591.96 406.85 595.00 410.00
C 591.63 409.33 592.32 414.65 589.00 414.00
C 595.95 420.29 579.32 427.06 589.00 431.00
C 586.96 433.33 585.86 434.92 587.00 438.00
C 580.74 439.87 582.22 450.85 573.00 451.00
C 572.62 447.49 569.24 448.39 568.00 447.00 Z"/>
</g>
<g fill="#FEDDCF" fill-opacity="0.95" stroke="None">
<path d="
M 409.00 448.00 
C 414.94 459.13 430.73 465.49 442.30 459.30 C 453.88 453.11 460.13 440.84 459.00 427.00 C 457.87 413.16 461.26 392.81 458.00 379.00
C 453.46 383.13 457.24 393.46 456.00 400.00
C 452.23 398.51 445.66 403.66 450.00 406.00
C 445.16 407.78 442.91 408.77 438.00 411.00
C 441.37 413.57 436.63 417.00 433.00 418.00
C 433.03 423.92 432.64 429.41 430.24 433.23 C 427.83 437.05 420.98 439.84 426.00 445.00
C 419.32 442.58 426.74 454.25 420.00 451.00
C 421.74 452.72 421.19 454.16 422.00 456.00
C 417.85 454.82 411.28 450.50 409.00 448.00 Z"/>
</g>
<g fill="#FDD3E5" fill-opacity="0.97" stroke="None">
<path d="
M 723.00 422.00 
C 723.00 422.00 722.01 421.94 722.00 422.00
C 720.40 445.51 713.52 468.27 701.00 488.00
C 701.92 487.19 702.29 485.66 704.00 486.00
C 698.02 496.98 688.87 505.98 681.00 515.00
C 684.43 515.82 686.73 519.91 687.00 515.00
C 688.06 519.21 694.13 513.90 693.00 519.00
C 695.43 516.20 697.60 515.89 701.00 515.00
C 702.64 517.11 700.40 518.68 703.00 520.00
C 705.49 516.82 704.96 518.95 706.00 521.00
C 711.29 515.49 715.32 508.89 721.00 504.00
C 721.48 506.66 717.47 507.32 718.00 510.00
C 720.76 508.47 721.41 504.54 724.00 503.00
C 771.63 510.82 822.58 485.71 841.00 441.00
C 839.05 438.47 835.85 450.05 833.00 453.00
C 829.29 450.31 831.78 447.87 832.00 444.00
C 829.46 442.54 826.56 444.08 824.00 443.00
C 824.27 439.53 828.64 443.20 828.00 440.00
C 822.83 437.99 830.82 439.95 829.00 436.00
C 826.03 437.77 824.59 434.97 823.00 433.00
C 825.05 431.56 823.95 430.34 826.00 429.00
C 820.95 429.28 825.20 426.82 827.00 426.00
C 824.26 426.60 822.54 424.00 820.00 424.00
C 822.31 426.55 818.96 428.04 817.00 426.00
C 823.24 428.02 815.90 432.61 815.00 429.00
C 803.34 458.71 771.21 478.44 739.00 476.00
C 745.44 459.48 751.08 442.01 752.00 424.00
C 748.76 424.56 751.09 428.80 749.00 430.00
C 749.29 418.58 752.47 404.22 748.00 394.00
C 747.72 397.36 747.47 398.57 744.00 397.00
C 745.83 392.13 740.76 391.58 738.00 392.00
C 739.92 387.32 734.78 387.59 734.00 383.00
C 729.77 384.17 727.61 379.31 725.00 385.00
C 727.44 387.61 731.18 385.31 731.00 390.00
C 728.90 387.97 727.06 389.05 725.00 387.00
C 722.03 400.98 725.98 417.32 723.00 431.00
C 723.00 428.00 723.00 425.00 723.00 422.00 Z"/>
</g>
<g fill="#FEE4CA" fill-opacity="0.96" stroke="None">
<path d="
M 196.00 420.00 
C 199.35 419.74 203.96 419.00 208.00 419.00
C 212.27 418.59 218.46 417.99 223.00 417.00
C 212.70 415.80 220.55 405.19 220.00 400.00
C 222.39 400.38 227.81 399.11 224.00 397.00
C 211.74 397.00 198.47 396.49 187.00 396.00
C 178.38 396.47 172.85 403.61 176.08 411.92 C 179.30 420.24 188.38 419.85 196.00 420.00 Z"/>
</g>
<g fill="#F9D6C4" fill-opacity="0.79" stroke="None">
<path d="
M 224.00 397.00 
C 228.41 397.00 234.45 395.90 238.00 396.00
C 221.97 394.01 203.14 395.12 187.00 396.00
C 198.47 396.49 211.74 397.00 224.00 397.00 Z"/>
</g>
<g fill="#FED5D0" fill-opacity="0.95" stroke="None">
<path d="
M 224.00 397.00 
C 227.81 399.11 222.39 400.38 220.00 400.00
C 220.55 405.19 212.70 415.80 223.00 417.00
C 218.46 417.99 212.27 418.59 208.00 419.00
C 212.08 419.00 216.66 419.68 220.00 420.00
C 228.47 420.00 239.79 421.65 245.74 414.74 C 251.70 407.83 246.51 397.06 238.00 396.00
C 234.45 395.90 228.41 397.00 224.00 397.00 Z"/>
</g>
<g fill="#FFE1C9" fill-opacity="0.05" stroke="None">
<path d="
M 196.00 420.00 
C 203.99 420.16 212.01 420.00 220.00 420.00
C 216.66 419.68 212.08 419.00 208.00 419.00
C 203.96 419.00 199.35 419.74 196.00 420.00 Z"/>
</g>
<g fill="#FEE0CD" fill-opacity="0.96" stroke="None">
<path d="
M 197.00 487.00 
C 192.78 491.18 186.61 498.48 190.26 504.74 C 193.91 511.00 203.10 510.39 207.00 510.00
C 215.80 506.11 227.55 501.12 235.77 496.77 C 243.99 492.42 257.47 489.44 260.00 480.00
C 260.14 476.12 255.65 472.57 257.00 469.00
C 255.08 467.56 251.96 467.50 251.00 465.00
C 241.38 463.15 232.00 470.60 223.23 474.23 C 214.46 477.86 205.18 482.34 197.00 487.00 Z"/>
</g>
<g fill="#FDCBCB" fill-opacity="0.68" stroke="None">
<path d="
M 260.00 480.00 
C 261.89 472.96 258.31 466.41 251.00 465.00
C 251.96 467.50 255.08 467.56 257.00 469.00
C 255.65 472.57 260.14 476.12 260.00 480.00 Z"/>
</g>
<g fill="#EFDDF8" fill-opacity="0.95" stroke="None">
<path d="
M 701.00 488.00 
C 700.18 489.30 698.83 490.36 698.00 492.00
C 697.22 493.54 697.26 493.76 696.00 495.00
C 692.64 498.32 689.64 502.23 687.00 506.00
C 684.73 509.24 680.91 511.88 679.00 513.00
C 636.59 547.84 580.34 545.59 526.00 543.00 C 471.66 540.41 406.57 554.04 360.00 524.00
C 367.89 536.08 388.42 532.82 393.00 545.00
C 390.54 545.14 388.45 542.37 389.00 540.00
C 385.90 541.19 382.26 538.73 379.00 538.00
C 378.41 541.52 376.10 540.07 374.00 541.00
C 373.39 536.88 378.64 540.06 378.00 536.00
C 375.38 538.08 374.69 533.90 373.00 536.00
C 375.03 538.24 370.85 539.36 372.00 542.00
C 369.51 537.45 367.23 543.66 364.00 543.00
C 367.04 538.98 360.59 540.60 362.00 544.00
C 360.78 541.24 359.77 540.96 357.00 543.00
C 360.71 538.35 350.83 536.65 350.00 542.00
C 353.17 542.22 359.88 542.87 360.00 546.00
C 363.40 544.44 367.18 543.76 370.00 542.00
C 367.92 547.03 367.47 546.73 364.00 545.00
C 366.46 547.79 362.70 549.87 360.00 549.00
C 362.14 550.12 363.81 552.62 360.00 553.00
C 382.47 564.11 404.69 568.52 431.00 569.00 C 457.31 569.48 491.57 568.83 518.00 569.00 C 544.43 569.17 578.37 569.48 603.00 568.00 C 627.63 566.52 652.49 561.47 671.77 549.77 C 691.05 538.08 706.76 529.33 718.00 510.00
C 717.47 507.32 721.48 506.66 721.00 504.00
C 715.32 508.89 711.29 515.49 706.00 521.00
C 704.96 518.95 705.49 516.82 703.00 520.00
C 700.40 518.68 702.64 517.11 701.00 515.00
C 697.60 515.89 695.43 516.20 693.00 519.00
C 694.13 513.90 688.06 519.21 687.00 515.00
C 686.73 519.91 684.43 515.82 681.00 515.00
C 688.87 505.98 698.02 496.98 704.00 486.00
C 702.29 485.66 701.92 487.19 701.00 488.00 Z"/>
</g>
<g fill="#F9E5C6" fill-opacity="0.75" stroke="None">
<path d="
M 207.00 510.00 
C 203.10 510.39 193.91 511.00 190.26 504.74 C 186.61 498.48 192.78 491.18 197.00 487.00
C 190.68 490.60 183.75 497.21 187.70 505.30 C 191.65 513.40 200.42 512.91 207.00 510.00 Z"/>
</g>
<g fill="#F5CAE4" fill-opacity="0.54" stroke="None">
<path d="
M 696.00 495.00 
C 697.26 493.76 697.22 493.54 698.00 492.00
C 697.35 492.86 696.58 494.16 696.00 495.00 Z"/>
</g>
<g fill="#F1CEE8" fill-opacity="0.63" stroke="None">
<path d="
M 679.00 513.00 
C 680.91 511.88 684.73 509.24 687.00 506.00
C 685.26 507.99 681.37 511.05 679.00 513.00 Z"/>
</g>
<g fill="#E8ECED" fill-opacity="0.16" stroke="None">
<path d="
M 328.00 591.00 
C 339.61 589.04 352.20 591.74 364.00 591.00 C 375.80 590.26 388.15 591.00 400.00 591.00
C 405.39 591.00 411.36 590.45 416.00 590.00
C 401.57 590.00 385.24 589.10 371.00 590.00 C 356.76 590.90 341.04 587.04 328.00 591.00 Z"/>
</g>
<g fill="#D6ECFC" fill-opacity="0.94" stroke="None">
<path d="
M 400.00 591.00 
C 387.13 592.25 372.59 592.15 359.00 592.00
C 360.58 594.03 358.82 595.74 360.00 598.00
C 354.26 592.25 358.99 602.56 363.00 597.00
C 361.58 598.79 363.35 601.08 364.00 603.00
C 358.23 602.63 357.27 607.51 359.00 610.00
C 353.42 609.17 349.49 614.72 344.00 616.00
C 362.27 614.33 383.52 615.31 401.00 617.00
C 418.21 617.00 435.83 617.09 453.00 617.00 C 470.17 616.91 487.97 617.24 505.00 617.00 C 522.03 616.76 539.22 617.56 556.00 617.00 C 572.78 616.44 591.71 618.22 608.00 617.00 C 624.29 615.78 644.90 619.70 660.00 617.00 C 675.10 614.30 695.43 626.10 703.69 609.69 C 711.96 593.28 688.83 587.14 674.00 590.00 C 659.17 592.86 638.10 588.69 622.00 590.00 C 605.90 591.31 587.72 589.43 571.00 590.00 C 554.28 590.57 536.00 589.75 519.00 590.00 C 502.00 590.25 484.06 589.90 467.00 590.00 C 449.94 590.10 433.04 590.00 416.00 590.00
C 411.36 590.45 405.39 591.00 400.00 591.00 Z"/>
</g>
<g fill="#EFEDE8" fill-opacity="0.96" stroke="None">
<path d="
M 344.00 617.00 
C 343.96 617.00 344.00 616.00 344.00 616.00
C 349.49 614.72 353.42 609.17 359.00 610.00
C 357.27 607.51 358.23 602.63 364.00 603.00
C 363.35 601.08 361.58 598.79 363.00 597.00
C 358.99 602.56 354.26 592.25 360.00 598.00
C 358.82 595.74 360.58 594.03 359.00 592.00
C 372.59 592.15 387.13 592.25 400.00 591.00
C 388.15 591.00 375.80 590.26 364.00 591.00 C 352.20 591.74 339.61 589.04 328.00 591.00
C 319.94 593.45 315.28 601.66 320.08 609.92 C 324.89 618.18 335.38 617.00 344.00 617.00 Z"/>
</g>
<g fill="#E8EBEE" fill-opacity="0.05" stroke="None">
<path d="
M 344.00 617.00 
C 363.00 617.00 382.00 617.00 401.00 617.00
C 383.52 615.31 362.27 614.33 344.00 616.00
C 344.00 616.00 343.96 617.00 344.00 617.00 Z"/>
</g>
<g fill="#D9EEFE" fill-opacity="0.96" stroke="None">
<path d="
M 550.00 705.00 
C 550.08 707.53 551.37 707.89 552.00 710.00
C 556.00 710.00 560.00 710.00 564.00 710.00
C 564.66 741.25 562.67 773.17 565.00 804.00
C 575.39 800.92 590.49 804.98 599.00 803.00
C 599.01 791.99 598.89 782.15 598.00 772.00
C 597.60 767.41 598.00 762.61 598.00 758.00
C 598.00 757.50 598.00 756.50 598.00 756.00
C 598.00 751.33 598.00 746.67 598.00 742.00
C 598.00 742.00 598.00 741.50 598.00 741.00
C 598.00 734.05 597.58 726.94 598.00 720.00
C 598.44 717.69 599.21 715.31 598.00 713.00
C 602.16 711.42 603.74 711.83 599.00 710.00
C 606.41 710.85 617.74 708.01 622.00 712.00
C 624.19 705.73 619.76 694.94 623.00 686.00
C 611.23 684.39 595.73 688.63 598.67 673.67 C 601.61 658.71 609.25 660.78 622.00 660.00
C 622.00 651.67 622.00 643.33 622.00 635.00
C 606.09 634.87 588.59 632.73 576.25 643.25 C 563.90 653.77 563.51 669.26 564.00 685.00
C 559.33 685.00 554.67 685.00 550.00 685.00
C 550.15 691.66 549.80 698.34 550.00 705.00 Z"/>
</g>
<g fill="#FEDBE0" fill-opacity="0.96" stroke="None">
<path d="
M 271.00 713.00 
C 270.92 713.98 273.11 717.24 272.00 719.00
C 276.34 719.84 275.54 721.20 273.00 724.00
C 275.74 724.47 277.56 722.29 279.00 725.00
C 277.04 721.38 277.69 718.21 277.00 714.00
C 279.92 715.37 282.72 719.14 279.00 721.00
C 283.46 721.06 281.74 726.57 285.00 727.00
C 282.45 724.32 287.52 723.82 284.00 722.00
C 287.99 719.61 287.17 728.23 291.00 723.00
C 290.19 725.88 292.90 727.15 295.00 728.00
C 294.31 729.63 293.63 732.20 296.00 733.00
C 294.48 727.71 300.81 726.02 301.00 721.00
C 303.35 722.08 300.66 724.31 301.00 726.00
C 311.37 705.34 343.49 703.16 355.00 724.00
C 366.15 722.04 378.95 724.12 390.00 723.00
C 371.61 673.68 296.79 667.69 271.00 713.00 Z"/>
</g>
<g fill="#EDE5FB" fill-opacity="0.96" stroke="None">
<path d="
M 499.00 698.00 
C 477.90 676.67 437.41 676.79 415.75 701.75 C 394.10 726.71 394.85 764.75 415.25 787.75 C 435.65 810.76 478.51 816.81 501.00 792.00
C 500.41 796.25 502.13 799.32 503.00 804.00
C 511.54 802.95 524.24 801.19 531.00 805.00
C 532.66 764.92 532.66 723.09 531.00 683.00
C 523.66 687.37 508.57 683.89 498.00 685.00
C 500.04 688.88 498.55 693.70 499.00 698.00
M 472.00 709.00 
C 514.21 715.03 507.91 784.81 464.00 781.00 C 420.09 777.19 427.77 702.68 472.00 709.00 Z"/>
</g>
<g fill="#D4ECFE" fill-opacity="0.95" stroke="None">
<path d="
M 763.00 756.00 
C 766.55 722.00 744.60 689.43 711.00 683.00 C 677.40 676.57 643.45 696.88 634.98 729.98 C 626.50 763.07 646.70 798.18 679.33 806.67 C 711.95 815.16 750.73 800.81 760.00 767.00
C 748.73 767.57 736.86 765.80 726.00 768.00
C 722.61 780.46 704.07 783.52 691.67 781.33 C 679.27 779.13 668.82 768.69 667.00 756.00
C 699.00 756.00 731.00 756.00 763.00 756.00
M 730.00 733.00 
C 709.33 733.00 688.67 733.00 668.00 733.00
C 670.96 699.34 725.79 699.85 730.00 733.00 Z"/>
</g>
<g fill="#DBE3E4" fill-opacity="0.02" stroke="None">
<path d="
M 552.00 710.00 
C 551.37 707.89 550.08 707.53 550.00 705.00
C 544.30 706.00 551.83 710.27 550.00 712.00
C 551.97 713.98 553.36 709.69 552.00 710.00 Z"/>
</g>
<g fill="#000000" fill-opacity="0.00" stroke="None">
<path d="
M 730.00 733.00 
C 725.79 699.85 670.96 699.34 668.00 733.00
C 688.67 733.00 709.33 733.00 730.00 733.00 Z"/>
</g>
<g fill="#000000" fill-opacity="0.00" stroke="None">
<path d="
M 472.00 709.00 
C 427.77 702.68 420.09 777.19 464.00 781.00 C 507.91 784.81 514.21 715.03 472.00 709.00 Z"/>
</g>
<g fill="#F8EADF" fill-opacity="0.96" stroke="None">
<path d="
M 352.00 805.00 
C 352.79 804.41 353.46 802.78 354.00 802.00
C 348.05 803.43 342.36 806.01 336.00 806.00
C 335.96 802.60 341.42 801.61 339.00 798.00
C 343.81 803.92 340.97 797.63 347.00 801.00
C 347.50 796.62 346.97 794.47 344.00 791.00
C 347.53 795.69 349.40 788.99 348.00 786.00
C 351.39 788.12 353.16 785.38 356.00 789.00
C 355.34 782.97 348.97 783.99 345.00 785.00
C 341.34 781.22 346.13 780.09 345.00 777.00
C 311.78 796.73 287.53 753.25 301.00 726.00
C 300.66 724.31 303.35 722.08 301.00 721.00
C 300.81 726.02 294.48 727.71 296.00 733.00
C 293.63 732.20 294.31 729.63 295.00 728.00
C 292.90 727.15 290.19 725.88 291.00 723.00
C 287.17 728.23 287.99 719.61 284.00 722.00
C 287.52 723.82 282.45 724.32 285.00 727.00
C 281.74 726.57 283.46 721.06 279.00 721.00
C 282.72 719.14 279.92 715.37 277.00 714.00
C 277.69 718.21 277.04 721.38 279.00 725.00
C 277.56 722.29 275.74 724.47 273.00 724.00
C 275.54 721.20 276.34 719.84 272.00 719.00
C 273.11 717.24 270.92 713.98 271.00 713.00
C 257.54 736.64 258.41 767.59 278.08 787.92 C 297.76 808.24 325.14 814.43 352.00 805.00 Z"/>
</g>
<g fill="#F4FFFF" fill-opacity="0.01" stroke="None">
<path d="
M 598.00 741.00 
C 601.43 736.35 598.28 725.03 598.00 720.00
C 597.58 726.94 598.00 734.05 598.00 741.00 Z"/>
</g>
<g fill="#F2FFFF" fill-opacity="0.01" stroke="None">
<path d="
M 598.00 756.00 
C 599.30 752.94 600.22 745.01 598.00 742.00
C 598.00 746.67 598.00 751.33 598.00 756.00 Z"/>
</g>
<g fill="#EAFCFF" fill-opacity="0.02" stroke="None">
<path d="
M 598.00 772.00 
C 598.04 767.79 599.91 762.50 598.00 758.00
C 598.00 762.61 597.60 767.41 598.00 772.00 Z"/>
</g>
<g fill="#F3E3EA" fill-opacity="0.94" stroke="None">
<path d="
M 345.00 777.00 
C 346.13 780.09 341.34 781.22 345.00 785.00
C 348.97 783.99 355.34 782.97 356.00 789.00
C 353.16 785.38 351.39 788.12 348.00 786.00
C 349.40 788.99 347.53 795.69 344.00 791.00
C 346.97 794.47 347.50 796.62 347.00 801.00
C 340.97 797.63 343.81 803.92 339.00 798.00
C 341.42 801.61 335.96 802.60 336.00 806.00
C 342.36 806.01 348.05 803.43 354.00 802.00
C 353.46 802.78 352.79 804.41 352.00 805.00
C 369.56 798.92 384.55 783.71 390.00 766.00
C 380.83 764.95 371.12 767.40 362.00 766.00 C 352.88 764.60 351.56 773.11 345.00 777.00 Z"/>
</g>
</svg>